<?xml version="1.0" encoding="utf-8"?>
<!-- Generator: Adobe Illustrator 22.1.0, SVG Export Plug-In . SVG Version: 6.00 Build 0)  -->
<svg version="1.1" id="Layer_1" xmlns="http://www.w3.org/2000/svg" xmlns:xlink="http://www.w3.org/1999/xlink" x="0px" y="0px"
	 viewBox="0 0 256 256" style="enable-background:new 0 0 256 256;" xml:space="preserve">
<style type="text/css">
	.st0{fill:#231F20;}
	.st1{fill:#30302F;}
	.st2{fill:#603813;}
</style>
<g>
	<g>
		<path class="st0" d="M102.87,108.43c0.86,2.9,2.36,7.08,0.86,10.73l24.25,15.67v-28.97L102.87,108.43z"/>
		<path class="st0" d="M97.65,94.07c-1.66-1.97-3.75-0.71-5.16-1.85c-1.41-1.14-1.83-3.29-4.12-4.59c-2.07-1.17-4.21,3.81-5.25,5.08
			s-2.42,1.79-1.69,2.93c2.27,3.52,7.51,6.06,11.21,5.99C96.32,101.56,98.46,95.03,97.65,94.07z"/>
		<path class="st0" d="M83.38,93.51c-3.67,0.54-7.78-13.7-11.86-15.03c1.33-1.43,1.44-2.07,1.43-2.88
			c-0.01-0.81-0.11-7.04-5.15-8.66c2.79-2.62,2.19-4.98-0.9-5.88c2.53-0.65,4.31,0.23,5.62,0.3c1.31,0.07,1.71-0.65,2.97-0.13
			c1.08,0.45,1.38,3.69,1.94,5.06c2,4.85,1.69,7.93,3.15,12.04c1.46,4.11,2.5,5.96,2.98,6.52c0.48,0.56,2.81,2.99,2.91,3.38
			c0.1,0.38,0.19,2.75-0.3,3.49S84.62,93.33,83.38,93.51z"/>
		<path class="st0" d="M70.41,58.34c0,0-0.6,0.89-0.19,1.74s2.08,3.71,2.08,3.71l2.08-0.01l-2.21-5.43L70.41,58.34z"/>
		<path class="st0" d="M68.86,53.82c-0.13,0.57,0.72,4.07,2.25,6.1l1.08-0.22c0,0-0.83-2.53-0.67-3.62
			c0.16-1.09-0.95-2.29-0.95-2.29L68.86,53.82z"/>
		<path class="st0" d="M67.87,46.79c-0.47,1.68,0.03,3.87,0.74,5.27c0.71,1.41,0.79,2.2,0.79,2.2l1.36-0.11c0,0-1.14-3.46-0.35-4.95
			c-0.48-1.07-0.75-1.61-0.71-2.17L67.87,46.79z"/>
		<path class="st0" d="M72.56,34.03c-2.08,0.76-3.62,2.86-4.09,5.69c-0.46,2.83-0.29,7.3-0.29,7.3l1.51,0.01
			c0,0-0.14-5.29,1.66-7.25c1.8-1.97,3.2-2.25,3.48-2.95C75.18,35.98,73.48,33.69,72.56,34.03z"/>
		<path class="st0" d="M72.8,33.99c0.53-1,2.19-2.45,4.06-2.17c1.87,0.28,3.81,2.54,4.79,5.23c-0.98-1.29-2.95-3.3-4.66-3.21
			c-1.13,0.06-2.24,1.58-2.73,1.85C73.77,35.97,72.43,34.68,72.8,33.99z"/>
		<path class="st0" d="M71.9,34.31c0.34-0.83,1.54-1.98,3-1.62s3.12,2.46,4.04,4.86c-0.84-1.19-2.5-3.06-3.82-3.1
			c-0.87-0.02-1.63,1.23-1.99,1.43C72.78,36.1,71.66,34.89,71.9,34.31z"/>
		<path class="st0" d="M74.09,36.27c1.42,0.18,4.33,1.22,5.47,1.18C78.18,36.26,75.57,35.86,74.09,36.27z"/>
		<path class="st0" d="M123.12,66.75c-3.05,0.85-6.69,5.17-7.03,5.33s-3.81,3.84-3.81,4.69c0,0.85,1.95,2.91,3.56,3.07
			c1.61,0.16,6.26-5.98,6.26-5.98L123.12,66.75z"/>
		<path class="st0" d="M118.16,79.31c-1.25-0.7-3.59-1.03-5.8-0.22c0,0-0.68,1.17-0.22,1.7c0.45,0.53,4.37-0.93,5.36-0.26
			L118.16,79.31z"/>
		<path class="st0" d="M108.85,79.49c-1.11,0.24-2.61,0.38-1.45-0.79s3.53-3.55,1.53-4.6c-2-1.06-3.51,1.73-3.87,3.15
			c-0.24,0.96-1.27,5.4,3.91,3.58L108.85,79.49z"/>
		<path class="st0" d="M56.18,157.73c0,0,0.17-1.09,0.72-1.6c0.54-0.52,2.68-2.39,2.68-2.39l1.55,0.59c0,0-1.67,1.8-1.96,2.28
			s-0.93,1.59-0.93,1.59L56.18,157.73z"/>
		<path class="st0" d="M53.16,161.39c0.07-0.46,1.68-2.83,3.4-3.91l0.74,0.47c0,0-1.33,1.65-1.52,2.51
			c-0.19,0.86-1.35,1.44-1.35,1.44L53.16,161.39z"/>
		<path class="st0" d="M50.17,166.35c0.13-1.38,1.39-2.87,2.32-3.72s1.21-1.42,1.21-1.42l0.98,0.46c0,0-1.83,2.26-1.66,3.59
			c-0.66,0.67-1.01,0.99-1.15,1.42L50.17,166.35z"/>
		<path class="st0" d="M48.69,180.36c-1.34-1.15-1.9-3.15-1.44-5.4c0.45-2.24,3.47-9.16,3.47-9.16l1.13,0.42
			c0,0-3.22,7.53-2.44,9.51s1.75,2.58,1.77,3.18C51.2,179.65,49.29,180.87,48.69,180.36z"/>
		<path class="st0" d="M49.78,180.82c0.17,0.88,1.11,2.37,2.6,2.59c1.49,0.22,3.5-1.06,4.86-2.89c-1.05,0.76-3.01,1.84-4.3,1.38
			c-0.85-0.31-1.35-1.72-1.65-2.04C50.98,179.53,49.67,180.21,49.78,180.82z"/>
		<path class="st0" d="M49.18,180.37c0.07,0.72,0.71,1.87,1.91,1.93c1.2,0.06,2.94-1.16,4.21-2.78c-0.92,0.71-2.61,1.76-3.63,1.49
			c-0.67-0.18-0.96-1.31-1.19-1.55C50.26,179.21,49.13,179.88,49.18,180.37z"/>
		<path class="st0" d="M50.42,179.05c1.12,0.19,3.59,0.07,4.45,0.36C53.54,180,51.45,179.71,50.42,179.05z"/>
		<path class="st0" d="M63,148.1c-0.17,0.84-3.62,5.31-4.16,5.7c1.1,0.26,2.33,0.59,2.52,0.91c0.46-1.38,1.31-3.2,1.77-3.83
			s1.49-1.77,1.9-2.14L63,148.1z"/>
		<path class="st0" d="M109.91,79.19c-0.39-0.19-1.29,0.36-1.17,0.91c0.12,0.55,0.94,0.71,1.38,0.45
			C110.57,80.3,110.3,79.38,109.91,79.19z"/>
		<path class="st0" d="M111.1,79.06c-0.35-0.21-1.11,0.29-0.97,0.85c0.14,0.55,0.87,0.76,1.24,0.53S111.45,79.28,111.1,79.06z"/>
		<path class="st0" d="M112.36,79.09c-0.31-0.27-1.14,0.11-1.11,0.68s0.72,0.89,1.13,0.72C112.79,80.32,112.67,79.36,112.36,79.09z"
			/>
		<path class="st0" d="M88.14,131.11c1.32-1.35,1.29-5.43-0.13-7.74c-1.42-2.31-6.19,1.02-6.49,1.93s0.07,4.34,1.04,5.02
			C83.53,130.99,87.22,132.05,88.14,131.11z"/>
		<path class="st0" d="M84.07,233.42c0,0-0.17-2.32-0.04-3.75c0.13-1.43,0.68-3.44,0.68-3.44l2.12-0.04l0.1,7.33L84.07,233.42z"/>
		<path class="st0" d="M86.13,240.22c-0.5-0.37-1.76-4.92-1.79-7.55l1.09-0.53c0,0,0.98,2.56,1.86,3.33s1.84,3.69,1.84,3.69
			L86.13,240.22z"/>
		<path class="st0" d="M90.16,246.69c-1.59-1.26-2.44-3.5-2.55-5.16c-0.11-1.66-0.53-2.42-0.53-2.42l1.57-0.65
			c0,0,2.08,4.73,3.91,5.64c0.15,1.23,0.13,1.97,0.53,2.46L90.16,246.69z"/>
		<path class="st0" d="M102.89,252.14c-1.33,0.9-3.26,0.81-5.2-0.3s-7.55-6.09-7.55-6.09l0.62-0.93c0,0,6.26,4.37,8.18,4.57
			c1.3,0.13,3.3-0.35,4.33,0.36C103.83,250.13,103.47,251.75,102.89,252.14z"/>
		<path class="st0" d="M103.3,252.28c0.71,0.57,2.39,1.12,3.68,0.33c1.29-0.79,2.02-3.08,1.89-5.38c-0.32,1.26-1.14,3.37-2.44,3.84
			c-0.86,0.31-2.15-0.46-2.6-0.51C103.4,250.51,102.81,251.88,103.3,252.28z"/>
		<path class="st0" d="M102.54,252.32c0.52,0.51,1.76,0.98,2.73,0.26c0.97-0.73,1.53-2.8,1.46-4.87c-0.25,1.14-0.88,3.05-1.85,3.49
			c-0.64,0.29-1.59-0.39-1.92-0.44C102.63,250.72,102.18,251.97,102.54,252.32z"/>
		<path class="st0" d="M102.93,250.44c0.99-0.58,2.82-2.26,3.68-2.59C105.95,249.16,104.15,250.28,102.93,250.44z"/>
		<path class="st0" d="M85.75,220.08c0.15,1-1.24,6.04-1.66,6.66c1.26-0.1,2.7-0.17,3.02,0.12c-0.06-1.71,0.14-4.05,0.38-4.91
			c0.24-0.86,0.36-1.32,0.66-1.88L85.75,220.08z"/>
		<path class="st0" d="M84.33,183.73c-1.89,1.13-3.7,6.32-3.37,9.88s6.45,1.45,7.16,0.43s1.89-5.53,1.26-6.83
			C88.73,185.92,85.64,182.95,84.33,183.73z"/>
		<path class="st0" d="M84.34,192.89c-0.91,0.74-2.74,3.94-1.33,9.92c0.91,3.89,0.47,8.95-0.27,12.86c-0.4,2.11-0.08,4.32-0.28,4.73
			c1.8-0.76,5.63-0.31,8.47,4.15c-1.55-3.96-2.75-13.24-2.38-18c0.21-2.7-0.26-11.12-1.17-12.35S85.26,192.14,84.34,192.89z"/>
		<path class="st1" d="M127.98,3v109.29c-7.19,0-15.6-2.24-20.99-2.24c-5.39,0-10.51,3.04-13.27,1.21S88,104,92.32,94.39
			c1.95-4.35,6.23-9.76,12.13-14.11c7.14-5.28,15.98-9.6,17.24-16.22c0.4-2.13,1.2-10.84,0.95-23.43
			C122.43,30.74,124.02,8.41,127.98,3z"/>
		<path class="st0" d="M83.06,128.28c0-1.64-0.76-2.97-2.63-2.45c-1.84,0.51-7.23,5.01-11.01,12.03c-0.08,0.16-0.17,0.31-0.26,0.46
			c-3.93,2.42-8.82,7.51-8.82,7.51s3.4-2.08,6.16-3.3c-3.33,4.73-6.96,8.21-8.35,9.06c2.98-0.23,6.53-1.46,6.95,2.34
			c1.35-3.79,3.26-6.1,5.07-8.41c0.24,2.16,0.24,8.15,0.24,8.15s0.78-5.68,0.78-9.49c0.15-0.2,0.3-0.41,0.45-0.62
			C73.8,140.46,83.06,129.93,83.06,128.28z"/>
		<path class="st0" d="M94.54,62.02c-4.18-8.75-7.76-15.71-7.16-22.07c-4.38,22.87,9.94,35.2,9.94,42.16s10.16,32.31,30.65,30.18
			V74.84C114.47,83.35,98.72,70.77,94.54,62.02z"/>
		<g>
			<path class="st2" d="M127.98,213.91c-23.44,0-46.52-18.03-46.52-45.63c0-21.9-1.71-35.49,8.42-50.24
				c0.78-1.14,4.82-0.59,8.39-0.51c7.24,0.16,16.44,1.91,18.82,3.51c4.04,2.71,10.89,11.92,10.89,11.92V213.91z"/>
			<path class="st0" d="M128.61,214.54c-0.98,0.04-2.02,0.08-3.05,0.06c-1.03-0.02-2.1-0.07-2.92-0.23
				c-1.76-0.29-3.54-0.48-5.25-0.99l-2.59-0.66l-2.52-0.89c-1.7-0.53-3.28-1.35-4.91-2.06c-6.43-3.02-12.05-7.65-16.45-13.16
				c-4.41-5.52-7.56-12.09-8.85-19.04l-0.41-2.62c-0.14-0.87-0.29-1.74-0.3-2.63c-0.06-1.76-0.23-3.53-0.2-5.28l-0.1-10.52
				c-0.03-7-0.11-14.08,1.21-21.04c0.65-3.47,1.68-6.87,3.09-10.11c0.38-0.8,0.71-1.62,1.13-2.4l1.26-2.33l1.41-2.24l0.35-0.56
				c0.07-0.1,0.2-0.24,0.31-0.33c0.12-0.07,0.24-0.17,0.36-0.21c0.49-0.22,0.95-0.28,1.41-0.33c1.82-0.16,3.57,0.01,5.32,0.07
				c1.73,0.05,3.52,0.08,5.27,0.24c3.52,0.29,7.01,0.79,10.48,1.59c0.87,0.2,1.73,0.44,2.58,0.71c0.83,0.29,1.76,0.63,2.52,1.21
				c1.49,1.08,2.75,2.34,3.98,3.62c2.44,2.58,4.69,5.29,6.85,8.08l0.01,0.01l0.16,0.21l0,0.27
				C128.82,160.12,128.75,187.39,128.61,214.54z M127.34,213.27c-0.13-26.82-0.2-53.52-0.16-80.32l0.16,0.47l0-0.01
				c-2.07-2.79-4.24-5.54-6.57-8.11c-1.17-1.27-2.39-2.53-3.72-3.53c-1.25-0.94-3-1.38-4.65-1.83c-3.36-0.86-6.82-1.39-10.29-1.72
				c-1.74-0.17-3.45-0.22-5.23-0.3c-1.75-0.08-3.52-0.26-5.19-0.13c-0.41,0.04-0.83,0.1-1.15,0.24c-0.08,0.03-0.13,0.08-0.2,0.11
				c-0.05,0.05-0.08,0.07-0.14,0.14l-0.35,0.55l-1.42,2.19l-1.27,2.28c-0.42,0.76-0.75,1.57-1.14,2.35
				c-1.43,3.17-2.43,6.53-3.09,9.95c-1.32,6.86-1.27,13.91-1.26,20.91l0.07,10.52c-0.01,0.88,0.02,1.75,0.08,2.62l0.15,2.61
				c0.01,0.87,0.17,1.73,0.31,2.59l0.42,2.58c1.32,6.85,4.46,13.29,8.84,18.68c0.55,0.67,1.1,1.35,1.67,2l1.85,1.83
				c1.18,1.28,2.6,2.29,3.93,3.41c0.65,0.58,1.41,1.02,2.12,1.51l2.16,1.44l2.29,1.24c0.76,0.41,1.51,0.86,2.32,1.17
				c1.6,0.67,3.16,1.43,4.83,1.89l2.47,0.79l2.53,0.56c1.67,0.45,3.4,0.57,5.11,0.81c0.9,0.15,1.59,0.1,2.32,0.18
				C125.86,213.02,126.57,213.14,127.34,213.27z"/>
		</g>
	</g>
	<g>
		<path class="st0" d="M153.13,108.43c-0.86,2.9-2.36,7.08-0.86,10.73l-24.25,15.67v-28.97L153.13,108.43z"/>
		<path class="st0" d="M158.35,94.07c1.66-1.97,3.75-0.71,5.16-1.85c1.41-1.14,1.83-3.29,4.12-4.59c2.07-1.17,4.21,3.81,5.25,5.08
			c1.04,1.27,2.42,1.79,1.69,2.93c-2.27,3.52-7.51,6.06-11.21,5.99C159.68,101.56,157.54,95.03,158.35,94.07z"/>
		<path class="st0" d="M172.62,93.51c3.67,0.54,7.78-13.7,11.86-15.03c-1.33-1.43-1.44-2.07-1.43-2.88
			c0.01-0.81,0.11-7.04,5.15-8.66c-2.79-2.62-2.19-4.98,0.9-5.88c-2.53-0.65-4.31,0.23-5.62,0.3c-1.31,0.07-1.71-0.65-2.97-0.13
			c-1.08,0.45-1.38,3.69-1.94,5.06c-2,4.85-1.69,7.93-3.15,12.04c-1.46,4.11-2.5,5.96-2.98,6.52c-0.48,0.56-2.81,2.99-2.91,3.38
			s-0.19,2.75,0.3,3.49S171.38,93.33,172.62,93.51z"/>
		<path class="st0" d="M185.59,58.34c0,0,0.6,0.89,0.19,1.74s-2.08,3.71-2.08,3.71l-2.08-0.01l2.21-5.43L185.59,58.34z"/>
		<path class="st0" d="M187.14,53.82c0.13,0.57-0.72,4.07-2.25,6.1l-1.08-0.22c0,0,0.83-2.53,0.67-3.62
			c-0.16-1.09,0.95-2.29,0.95-2.29L187.14,53.82z"/>
		<path class="st0" d="M188.13,46.79c0.47,1.68-0.03,3.87-0.74,5.27c-0.71,1.41-0.79,2.2-0.79,2.2l-1.36-0.11
			c0,0,1.14-3.46,0.35-4.95c0.48-1.07,0.75-1.61,0.71-2.17L188.13,46.79z"/>
		<path class="st0" d="M183.44,34.03c2.08,0.76,3.62,2.86,4.09,5.69c0.46,2.83,0.29,7.3,0.29,7.3l-1.51,0.01
			c0,0,0.14-5.29-1.66-7.25c-1.8-1.97-3.2-2.25-3.48-2.95C180.82,35.98,182.52,33.69,183.44,34.03z"/>
		<path class="st0" d="M183.2,33.99c-0.53-1-2.19-2.45-4.06-2.17c-1.87,0.28-3.81,2.54-4.79,5.23c0.98-1.29,2.95-3.3,4.66-3.21
			c1.13,0.06,2.24,1.58,2.73,1.85C182.23,35.97,183.57,34.68,183.2,33.99z"/>
		<path class="st0" d="M184.1,34.31c-0.34-0.83-1.54-1.98-3-1.62c-1.46,0.36-3.12,2.46-4.04,4.86c0.84-1.19,2.5-3.06,3.82-3.1
			c0.87-0.02,1.63,1.23,1.99,1.43C183.22,36.1,184.34,34.89,184.1,34.31z"/>
		<path class="st0" d="M181.91,36.27c-1.42,0.18-4.33,1.22-5.47,1.18C177.82,36.26,180.43,35.86,181.91,36.27z"/>
		<path class="st0" d="M132.88,66.75c3.05,0.85,6.69,5.17,7.03,5.33s3.81,3.84,3.81,4.69c0,0.85-1.95,2.91-3.56,3.07
			c-1.61,0.16-6.26-5.98-6.26-5.98L132.88,66.75z"/>
		<path class="st0" d="M137.84,79.31c1.25-0.7,3.59-1.03,5.8-0.22c0,0,0.68,1.17,0.22,1.7s-4.37-0.93-5.36-0.26L137.84,79.31z"/>
		<path class="st0" d="M147.15,79.49c1.11,0.24,2.61,0.38,1.45-0.79s-3.53-3.55-1.53-4.6c2-1.06,3.51,1.73,3.87,3.15
			c0.24,0.96,1.27,5.4-3.91,3.58L147.15,79.49z"/>
		<path class="st0" d="M199.82,157.73c0,0-0.17-1.09-0.72-1.6c-0.54-0.52-2.68-2.39-2.68-2.39l-1.55,0.59c0,0,1.67,1.8,1.96,2.28
			c0.29,0.48,0.93,1.59,0.93,1.59L199.82,157.73z"/>
		<path class="st0" d="M202.84,161.39c-0.07-0.46-1.68-2.83-3.4-3.91l-0.74,0.47c0,0,1.33,1.65,1.52,2.51
			c0.19,0.86,1.35,1.44,1.35,1.44L202.84,161.39z"/>
		<path class="st0" d="M205.83,166.35c-0.13-1.38-1.39-2.87-2.32-3.72c-0.93-0.85-1.21-1.42-1.21-1.42l-0.98,0.46
			c0,0,1.83,2.26,1.66,3.59c0.66,0.67,1.01,0.99,1.15,1.42L205.83,166.35z"/>
		<path class="st0" d="M207.31,180.36c1.34-1.15,1.9-3.15,1.44-5.4c-0.45-2.24-3.47-9.16-3.47-9.16l-1.13,0.42
			c0,0,3.22,7.53,2.44,9.51c-0.79,1.97-1.75,2.58-1.77,3.18C204.8,179.65,206.71,180.87,207.31,180.36z"/>
		<path class="st0" d="M206.22,180.82c-0.17,0.88-1.11,2.37-2.6,2.59c-1.49,0.22-3.5-1.06-4.86-2.89c1.05,0.76,3.01,1.84,4.3,1.38
			c0.85-0.31,1.35-1.72,1.65-2.04C205.02,179.53,206.33,180.21,206.22,180.82z"/>
		<path class="st0" d="M206.82,180.37c-0.07,0.72-0.71,1.87-1.91,1.93c-1.2,0.06-2.94-1.16-4.21-2.78c0.92,0.71,2.61,1.76,3.63,1.49
			c0.67-0.18,0.96-1.31,1.19-1.55C205.74,179.21,206.87,179.88,206.82,180.37z"/>
		<path class="st0" d="M205.58,179.05c-1.12,0.19-3.59,0.07-4.45,0.36C202.46,180,204.55,179.71,205.58,179.05z"/>
		<path class="st0" d="M193,148.1c0.17,0.84,3.62,5.31,4.16,5.7c-1.1,0.26-2.33,0.59-2.52,0.91c-0.46-1.38-1.31-3.2-1.77-3.83
			c-0.46-0.62-1.49-1.77-1.9-2.14L193,148.1z"/>
		<path class="st0" d="M146.09,79.19c0.39-0.19,1.29,0.36,1.17,0.91c-0.12,0.55-0.94,0.71-1.38,0.45
			C145.43,80.3,145.7,79.38,146.09,79.19z"/>
		<path class="st0" d="M144.9,79.06c0.35-0.21,1.11,0.29,0.97,0.85c-0.14,0.55-0.87,0.76-1.24,0.53
			C144.25,80.21,144.55,79.28,144.9,79.06z"/>
		<path class="st0" d="M143.64,79.09c0.31-0.27,1.14,0.11,1.11,0.68s-0.72,0.89-1.13,0.72C143.21,80.32,143.33,79.36,143.64,79.09z"
			/>
		<path class="st0" d="M167.86,131.11c-1.32-1.35-1.29-5.43,0.13-7.74c1.42-2.31,6.19,1.02,6.49,1.93c0.3,0.91-0.07,4.34-1.04,5.02
			C172.47,130.99,168.78,132.05,167.86,131.11z"/>
		<path class="st0" d="M171.93,233.42c0,0,0.17-2.32,0.04-3.75c-0.13-1.43-0.68-3.44-0.68-3.44l-2.12-0.04l-0.1,7.33L171.93,233.42z
			"/>
		<path class="st0" d="M169.87,240.22c0.5-0.37,1.76-4.92,1.79-7.55l-1.09-0.53c0,0-0.98,2.56-1.86,3.33s-1.84,3.69-1.84,3.69
			L169.87,240.22z"/>
		<path class="st0" d="M165.84,246.69c1.59-1.26,2.44-3.5,2.55-5.16c0.11-1.66,0.53-2.42,0.53-2.42l-1.57-0.65
			c0,0-2.08,4.73-3.91,5.64c-0.16,1.23-0.13,1.97-0.53,2.46L165.84,246.69z"/>
		<path class="st0" d="M153.11,252.14c1.33,0.9,3.26,0.81,5.2-0.3s7.55-6.09,7.55-6.09l-0.62-0.93c0,0-6.26,4.37-8.18,4.57
			c-1.3,0.13-3.3-0.35-4.33,0.36C152.17,250.13,152.53,251.75,153.11,252.14z"/>
		<path class="st0" d="M152.7,252.28c-0.71,0.57-2.39,1.12-3.68,0.33s-2.02-3.08-1.89-5.38c0.32,1.26,1.14,3.37,2.44,3.84
			c0.86,0.31,2.15-0.46,2.6-0.51C152.6,250.51,153.19,251.88,152.7,252.28z"/>
		<path class="st0" d="M153.46,252.32c-0.52,0.51-1.76,0.98-2.73,0.26c-0.97-0.73-1.53-2.8-1.46-4.87c0.25,1.14,0.88,3.05,1.85,3.49
			c0.64,0.29,1.59-0.39,1.92-0.44C153.37,250.72,153.82,251.97,153.46,252.32z"/>
		<path class="st0" d="M153.07,250.44c-0.99-0.58-2.82-2.26-3.68-2.59C150.05,249.16,151.85,250.28,153.07,250.44z"/>
		<path class="st0" d="M170.25,220.08c-0.15,1,1.24,6.04,1.66,6.66c-1.26-0.1-2.7-0.17-3.02,0.12c0.06-1.71-0.14-4.05-0.38-4.91
			s-0.36-1.32-0.66-1.88L170.25,220.08z"/>
		<path class="st0" d="M171.67,183.73c1.89,1.13,3.7,6.32,3.37,9.88c-0.33,3.56-6.45,1.45-7.16,0.43c-0.71-1.02-1.89-5.53-1.26-6.83
			C167.27,185.92,170.36,182.95,171.67,183.73z"/>
		<path class="st0" d="M171.66,192.89c0.91,0.74,2.74,3.94,1.33,9.92c-0.91,3.89-0.47,8.95,0.27,12.86c0.4,2.11,0.08,4.32,0.28,4.73
			c-1.8-0.76-5.63-0.31-8.47,4.15c1.55-3.96,2.75-13.24,2.38-18c-0.21-2.7,0.26-11.12,1.17-12.35S170.74,192.14,171.66,192.89z"/>
		<path class="st1" d="M128.02,3v109.29c7.19,0,15.6-2.24,20.99-2.24c5.39,0,10.51,3.04,13.27,1.21s5.72-7.25,1.4-16.86
			c-1.95-4.35-6.23-9.76-12.13-14.11c-7.14-5.28-15.98-9.6-17.24-16.22c-0.4-2.13-1.2-10.84-0.95-23.43
			C133.57,30.74,131.98,8.41,128.02,3z"/>
		<path class="st0" d="M172.94,128.28c0-1.64,0.76-2.97,2.63-2.45c1.84,0.51,7.23,5.01,11.01,12.03c0.08,0.16,0.17,0.31,0.26,0.46
			c3.93,2.42,8.82,7.51,8.82,7.51s-3.4-2.08-6.16-3.3c3.33,4.73,6.96,8.21,8.35,9.06c-2.98-0.23-6.53-1.46-6.95,2.34
			c-1.35-3.79-3.26-6.1-5.07-8.41c-0.24,2.16-0.24,8.15-0.24,8.15s-0.78-5.68-0.78-9.49c-0.15-0.2-0.3-0.41-0.45-0.62
			C182.2,140.46,172.94,129.93,172.94,128.28z"/>
		<path class="st0" d="M161.46,62.02c4.18-8.75,7.76-15.71,7.16-22.07c4.38,22.87-9.94,35.2-9.94,42.16s-10.16,32.31-30.65,30.18
			V74.84C141.53,83.35,157.28,70.77,161.46,62.02z"/>
		<g>
			<path class="st2" d="M128.02,213.91c23.44,0,46.52-18.03,46.52-45.63c0-21.9,1.71-35.49-8.42-50.24
				c-0.78-1.14-4.82-0.59-8.39-0.51c-7.24,0.16-16.44,1.91-18.82,3.51c-4.04,2.71-10.89,11.92-10.89,11.92V213.91z"/>
			<path class="st0" d="M128.66,213.27c0.77-0.13,1.49-0.25,2.2-0.31c0.72-0.08,1.41-0.03,2.32-0.18c1.71-0.24,3.44-0.36,5.11-0.81
				l2.53-0.56l2.47-0.79c1.67-0.46,3.24-1.22,4.83-1.89c0.81-0.31,1.55-0.76,2.32-1.17l2.29-1.24l2.16-1.44
				c0.71-0.49,1.47-0.93,2.12-1.51c1.33-1.12,2.75-2.13,3.93-3.41l1.85-1.83c0.57-0.65,1.12-1.33,1.67-2
				c4.37-5.39,7.52-11.83,8.84-18.68l0.42-2.58c0.15-0.86,0.3-1.72,0.31-2.59l0.15-2.61c0.06-0.87,0.09-1.74,0.08-2.62l0.07-10.52
				c0.01-7,0.06-14.05-1.26-20.91c-0.66-3.42-1.66-6.78-3.09-9.95c-0.38-0.78-0.71-1.59-1.14-2.35l-1.27-2.28l-1.42-2.19l-0.35-0.55
				c-0.06-0.07-0.09-0.09-0.14-0.14c-0.07-0.03-0.12-0.08-0.2-0.11c-0.31-0.14-0.74-0.2-1.15-0.24c-1.68-0.13-3.44,0.05-5.19,0.13
				c-1.78,0.07-3.49,0.12-5.23,0.3c-3.46,0.33-6.93,0.85-10.29,1.72c-1.65,0.46-3.4,0.89-4.65,1.83c-1.33,1.01-2.55,2.26-3.72,3.53
				c-2.33,2.57-4.51,5.32-6.57,8.11l0,0.01l0.16-0.47C128.86,159.75,128.79,186.45,128.66,213.27z M127.39,214.54
				c-0.13-27.16-0.2-54.42-0.16-81.59l0-0.27l0.16-0.21l0.01-0.01c2.17-2.8,4.41-5.51,6.85-8.08c1.23-1.28,2.49-2.54,3.98-3.62
				c0.76-0.57,1.69-0.92,2.52-1.21c0.86-0.27,1.72-0.52,2.58-0.71c3.46-0.79,6.96-1.3,10.48-1.59c1.75-0.16,3.55-0.19,5.27-0.24
				c1.75-0.05,3.49-0.22,5.32-0.07c0.46,0.05,0.92,0.11,1.41,0.33c0.12,0.05,0.24,0.14,0.36,0.21c0.11,0.09,0.24,0.23,0.31,0.33
				l0.35,0.56l1.41,2.24l1.26,2.33c0.42,0.78,0.75,1.6,1.13,2.4c1.41,3.24,2.44,6.65,3.09,10.11c1.31,6.95,1.24,14.03,1.21,21.04
				l-0.1,10.52c0.02,1.75-0.14,3.52-0.2,5.28c-0.01,0.89-0.16,1.76-0.3,2.63l-0.41,2.62c-1.29,6.96-4.44,13.53-8.85,19.04
				c-4.4,5.52-10.02,10.14-16.45,13.16c-1.62,0.71-3.21,1.53-4.91,2.06l-2.52,0.89l-2.59,0.66c-1.71,0.51-3.49,0.7-5.25,0.99
				c-0.83,0.17-1.9,0.21-2.92,0.23C129.4,214.62,128.37,214.59,127.39,214.54z"/>
		</g>
	</g>
</g>
</svg>
