<?xml version="1.0" encoding="utf-8"?>
<!-- Generator: Adobe Illustrator 22.1.0, SVG Export Plug-In . SVG Version: 6.00 Build 0)  -->
<svg version="1.1" id="Layer_1" xmlns="http://www.w3.org/2000/svg" xmlns:xlink="http://www.w3.org/1999/xlink" x="0px" y="0px"
	 viewBox="0 0 256 256" style="enable-background:new 0 0 256 256;" xml:space="preserve">
<style type="text/css">
	.st0{fill:#231F20;}
	.st1{fill:#D98427;}
	.st2{fill:#404041;}
	.st3{fill:#30302F;}
	.st4{fill:#CE7C2F;}
</style>
<g>
	<g>
		<g>
			<path class="st0" d="M105.61,128.84c-2.45-0.91-10.15-1.67-11.63-0.56c-1.04,0.78-0.87,4.52-0.25,4.89
				c0.62,0.37,10.21,3.16,11.39,3.16S107.77,129.64,105.61,128.84z"/>
			<path class="st0" d="M64.79,166.46c0,0,0.34-1.02,0.94-1.44c0.61-0.41,2.96-1.89,2.96-1.89l1.4,0.81c0,0-1.89,1.48-2.25,1.9
				s-1.14,1.39-1.14,1.39L64.79,166.46z"/>
			<path class="st0" d="M61.31,169.53c0.13-0.44,2.07-2.48,3.89-3.25l0.65,0.57c0,0-1.54,1.39-1.86,2.19
				c-0.32,0.8-1.53,1.18-1.53,1.18L61.31,169.53z"/>
			<path class="st0" d="M57.65,173.85c0.34-1.32,1.79-2.56,2.81-3.23c1.03-0.68,1.39-1.18,1.39-1.18l0.88,0.6
				c0,0-2.12,1.9-2.16,3.21c-0.74,0.54-1.13,0.8-1.33,1.19L57.65,173.85z"/>
			<path class="st0" d="M54.05,187.16c-1.11-1.32-1.34-3.34-0.56-5.43c0.79-2.09,4.77-8.3,4.77-8.3l1.02,0.58
				c0,0-4.28,6.78-3.83,8.8c0.45,2.03,1.29,2.76,1.21,3.34C56.58,186.86,54.54,187.74,54.05,187.16z"/>
			<path class="st0" d="M55.03,187.77c0.03,0.88,0.7,2.46,2.11,2.9c1.4,0.44,3.54-0.48,5.14-2.04c-1.13,0.57-3.2,1.31-4.37,0.67
				c-0.78-0.43-1.03-1.87-1.28-2.23C56.39,186.71,55.01,187.16,55.03,187.77z"/>
			<path class="st0" d="M54.52,187.24c-0.04,0.7,0.4,1.92,1.55,2.16c1.15,0.24,3.02-0.66,4.49-2.03c-1,0.55-2.8,1.3-3.73,0.87
				c-0.62-0.28-0.73-1.42-0.91-1.68C55.74,186.29,54.55,186.75,54.52,187.24z"/>
			<path class="st0" d="M55.93,186.16c1.05,0.36,3.45,0.62,4.24,1.04C58.79,187.56,56.82,186.95,55.93,186.16z"/>
			<path class="st0" d="M72.87,158.22c-0.29,0.79-4.32,4.57-4.9,4.86c1.02,0.42,2.16,0.94,2.29,1.27c0.65-1.26,1.76-2.89,2.3-3.42
				c0.54-0.53,1.71-1.48,2.17-1.77L72.87,158.22z"/>
			<path class="st0" d="M92.24,130.07c-1.38,0.07-12.64,13.28-15.74,19.4c-3.1,6.12-7.54,10.39-8.93,11.08
				c2.22,0.47,4.9,0.08,5.05,3.98c1.49-4.43,3.55-6.23,5.28-8.82c1.73-2.6,15.7-21.63,15.77-23.28
				C93.73,130.78,93.65,130,92.24,130.07z"/>
		</g>
		<path class="st0" d="M128,125.37c-7.29,0-23.12,1.36-23.04,7.8c0.05,4.15,17.24,2.3,23.04,10.36V125.37"/>
		<polygon class="st0" points="128,197.8 119.76,136.24 128,136.24 		"/>
		<g>
			<path class="st0" d="M91.14,188.02c-0.89,0.72-4.11,11.9-2.73,17.75c0.89,3.8,0.46,8.75-0.27,12.58
				c-0.39,2.07-0.08,4.22-0.27,4.63c1.76-0.74,4.17-0.3,6.95,4.06c-1.51-3.87-2.69-12.95-2.32-17.61
				c0.21-2.64,2.01-19.73,1.13-20.93C92.74,187.3,92.04,187.28,91.14,188.02z"/>
			<path class="st0" d="M99.04,179.72c0,0-6.83,3.68-7.06,5.98c-0.23,2.3,1.38,4.07,2.99,4.07c1.61,0,7.52-3.38,7.52-3.38
				L99.04,179.72z"/>
			<path class="st0" d="M88.99,234.76c0,0-0.15-2.1-0.04-3.4c0.12-1.3,0.61-3.12,0.61-3.12l1.92-0.03l0.09,6.64L88.99,234.76z"/>
			<path class="st0" d="M91.55,241.41c-0.45-0.34-1.59-4.47-1.62-6.84l0.99-0.48c0,0,0.89,2.33,1.69,3.02
				c0.8,0.7,1.67,3.35,1.67,3.35L91.55,241.41z"/>
			<path class="st0" d="M95.21,247.27c-1.44-1.14-2.21-3.18-2.31-4.68c-0.1-1.5-0.48-2.19-0.48-2.19l1.43-0.59
				c0,0,1.89,4.29,3.54,5.11c0.14,1.12,0.12,1.79,0.48,2.23L95.21,247.27z"/>
			<path class="st0" d="M106.75,252.22c-1.21,0.82-2.96,0.74-4.71-0.27c-1.75-1.01-6.85-5.52-6.85-5.52l0.57-0.85
				c0,0,5.68,3.97,7.42,4.14c1.18,0.12,3-0.31,3.93,0.33C107.61,250.4,107.29,251.86,106.75,252.22z"/>
			<path class="st0" d="M107.13,252.34c0.64,0.52,2.17,1.02,3.34,0.3c1.17-0.72,1.83-2.79,1.72-4.88c-0.29,1.15-1.04,3.06-2.21,3.49
				c-0.78,0.28-1.95-0.42-2.36-0.47C107.21,250.74,106.69,251.98,107.13,252.34z"/>
			<path class="st0" d="M106.44,252.39c0.47,0.46,1.6,0.89,2.47,0.23c0.88-0.66,1.39-2.54,1.33-4.42c-0.23,1.04-0.8,2.77-1.68,3.17
				c-0.58,0.26-1.44-0.36-1.74-0.39C106.52,250.94,106.11,252.07,106.44,252.39z"/>
			<path class="st0" d="M106.79,250.67c0.9-0.52,2.56-2.05,3.34-2.35C109.53,249.51,107.89,250.53,106.79,250.67z"/>
			<path class="st0" d="M90.51,222.65c0.13,0.91-1.12,5.48-1.51,6.04c1.14-0.09,2.45-0.15,2.74,0.11c-0.05-1.55,0.13-3.67,0.35-4.45
				s0.33-1.19,0.59-1.71L90.51,222.65z"/>
		</g>
		<path class="st1" d="M125.12,216.17c-16.19,0-19.66-12.51-27.02-38.43c-5.06-17.84-6.18-27.11,0.82-39.61
			c0.54-0.97,3.21-2.47,5.67-2.7c4.99-0.48,17.44,1.35,19.09,2.7c2.79,2.3,2.71,9.49,2.71,9.49s2.96,62.86,0.59,66.61
			C125.84,216.03,125.12,216.17,125.12,216.17z"/>
		<path class="st0" d="M125.2,216.96l-1.66-0.05c-0.53-0.05-1.06-0.08-1.58-0.15c-1.05-0.14-2.11-0.32-3.14-0.62
			c-2.07-0.56-4.04-1.53-5.74-2.84c-3.43-2.65-5.62-6.42-7.34-10.18c-3.34-7.63-5.34-15.65-7.61-23.56
			c-1.11-3.96-2.21-7.94-3.07-11.98c-0.84-4.04-1.53-8.16-1.43-12.32c-0.01-2.08,0.29-4.15,0.66-6.2c0.46-2.03,1.05-4.03,1.85-5.94
			c0.37-0.97,0.85-1.89,1.28-2.84l0.73-1.37c0.27-0.45,0.41-0.92,0.85-1.39c0.8-0.78,1.75-1.27,2.72-1.69
			c0.98-0.4,2.02-0.69,3.08-0.77c2.1-0.15,4.16-0.02,6.22,0.15c2.06,0.18,4.11,0.43,6.15,0.76c2.04,0.36,4.07,0.67,6.09,1.45
			c1.15,0.49,1.72,1.52,2.19,2.47c0.45,0.98,0.72,2.01,0.93,3.04c0.2,1.03,0.33,2.07,0.4,3.11l0.13,3.09l0.29,6.17l0.54,12.34
			c0.34,8.23,0.63,16.45,0.8,24.69c0.08,4.12,0.13,8.24,0.09,12.37c-0.03,2.07-0.07,4.13-0.23,6.22c-0.11,1.06-0.15,2.05-0.51,3.25
			c-0.03,0.13-0.16,0.37-0.24,0.51l-0.23,0.34c-0.16,0.23-0.32,0.45-0.51,0.67c-0.18,0.22-0.38,0.44-0.61,0.65
			c-0.12,0.1-0.24,0.21-0.38,0.3c-0.07,0.05-0.15,0.1-0.24,0.15l-0.15,0.07l-0.09,0.04C125.36,216.92,125.46,216.91,125.2,216.96z
			 M125.04,215.39c-0.23,0.04-0.1,0.02-0.15,0.03l0,0l0.03-0.01l0.09-0.06c0.07-0.05,0.14-0.11,0.22-0.18
			c0.15-0.14,0.3-0.3,0.44-0.48c0.15-0.18,0.28-0.37,0.42-0.56l0.2-0.3c0.04-0.08,0.04-0.07,0.08-0.19
			c0.24-0.78,0.34-1.86,0.42-2.84c0.16-2.02,0.24-4.07,0.29-6.11c0.1-4.1,0.1-8.21,0.07-12.32c-0.06-8.22-0.25-16.45-0.49-24.67
			l-0.41-12.33l-0.24-6.17l-0.11-3.08c-0.06-1.01-0.17-2.02-0.36-3.01c-0.19-0.99-0.45-1.96-0.85-2.86
			c-0.4-0.86-0.96-1.77-1.76-2.08c-1.82-0.72-3.89-1.08-5.89-1.44c-4.03-0.64-8.15-1.18-12.19-0.99c-1.94,0.16-3.97,0.95-5.4,2.22
			c-0.29,0.28-0.49,0.81-0.74,1.25L98,140.57c-0.41,0.93-0.88,1.84-1.24,2.8c-0.78,1.89-1.34,3.85-1.77,5.84
			c-0.36,2-0.63,4.02-0.61,6.06c-0.06,4.08,0.64,8.14,1.5,12.13c0.88,4,2.01,7.95,3.14,11.91c1.13,3.96,2.3,7.9,3.54,11.81
			c1.25,3.9,2.59,7.79,4.3,11.48c1.72,3.65,3.88,7.2,7.06,9.57C117.03,214.6,121.21,215.41,125.04,215.39z"/>
		<path class="st2" d="M123.03,67.82c1.43-1.52,1.98-4.94,3.46-4.94c1.48,0,0.16,7.73,0.16,7.73L123.03,67.82z"/>
		<path class="st2" d="M125.43,66.59c-0.29-0.29-1.4-1.7-2.59-2.84c-1.15-1.1-2.09-1.9-2.47-2.19c-0.42-0.32-0.87-0.69-1-0.12
			c-0.07,0.3,1.32,1.26,2.7,2.41c1.27,1.05,2.52,2.29,2.97,2.82L125.43,66.59z"/>
		<path class="st2" d="M119.64,61.4c0.24-0.58-0.67-4.13-0.85-4.7c-0.19-0.57,1.23-2.26,1.01-2.57c-0.22-0.31-0.72-0.52-0.93-0.07
			s-0.81,1.73-0.77,2.05c0.03,0.32,1.53,4.89,1.4,5.31L119.64,61.4z"/>
		<g>
			<path class="st0" d="M64.9,69.07c0,0-0.22,0.94,0.4,1.52c0.62,0.58,3.67,3.49,3.67,3.49l1.74-0.69l-4.33-4.9L64.9,69.07z"/>
			<path class="st0" d="M62.11,65.79c0.08,0.52,1.93,3.18,3.88,4.38l0.83-0.54c0,0-1.52-1.85-1.75-2.82s-1.54-1.61-1.54-1.61
				L62.11,65.79z"/>
			<path class="st0" d="M58.99,60.22c0.16,1.56,1.29,3.23,2.34,4.18c1.05,0.95,1.38,1.58,1.38,1.58l1.1-0.53
				c0,0-2.09-2.53-1.92-4.04c-0.75-0.74-1.15-1.1-1.31-1.59L58.99,60.22z"/>
			<path class="st0" d="M58.74,47.99c-1.5,1.32-2.1,3.58-1.56,6.11c0.54,2.52,2.15,6.21,2.15,6.21l1.27-0.49
				c0,0-1.84-4.39-0.98-6.62s1.95-2.93,1.96-3.61C61.57,48.77,59.4,47.41,58.74,47.99z"/>
			<path class="st0" d="M58.93,47.89c0.12-1.01,1.03-2.77,2.69-3.15c1.66-0.38,4.03,0.88,5.73,2.82c-1.24-0.76-3.55-1.8-4.96-1.17
				c-0.93,0.42-1.36,2.06-1.68,2.45C60.39,49.23,58.85,48.58,58.93,47.89z"/>
			<path class="st0" d="M58.28,48.44c0.02-0.81,0.64-2.17,1.98-2.34s3.42,1.04,4.98,2.75c-1.09-0.72-3.1-1.75-4.21-1.35
				c-0.74,0.27-0.97,1.56-1.2,1.85S58.27,49.01,58.28,48.44z"/>
			<path class="st0" d="M60.76,49.37c1.25-0.32,4.03-0.4,4.97-0.8C64.18,48.03,61.86,48.54,60.76,49.37z"/>
			<path class="st0" d="M100.37,110.14c-1.86-1.84-9.25-3.73-11.06-3.32c-1.27,0.28-2.65,3.76-2.24,4.35
				c0.41,0.59,7.76,7.08,10.18,7.43C98.42,118.76,102.02,111.76,100.37,110.14z"/>
			<path class="st0" d="M89.75,108.23c-4.16-4.16-13.08-19.99-14.65-23.9c-1.58-3.91-3.08-9.76-1.43-11.42
				c-1.84,0.58-1.76-1.54-1.98-3.45c-0.49,2.35-2.14,3.77-2.88,4.13c-1.95,0.96-4.01-1.66-4.78-2.27c0.75,2.71,0.18,3.23-1.9,3.28
				c5.76,2.82,8.22,8.67,7.78,10.05c-0.45,1.38-1.94,1.17-2.67,1.13c4.83,1.3,8.04,7.95,7.38,8.65c-0.65,0.69-1.74,0.34-2.43,0.3
				c2.88,0.89,7.74,5.78,7.32,7.57c-0.17,0.72-1.98,0.43-2.46,0.47c2.82,0.77,3.68,1.31,4.97,2.97c1.3,1.66,4.37,4.86,5.31,4.9
				L89.75,108.23z"/>
		</g>
		<path class="st2" d="M102.33,69.03c-1.15-0.41-5.97-2.87-10.65-4.45c-4.53-1.54-8.1-2.52-9.5-2.84c-1.54-0.35-3.23-0.78-2.87,0.95
			c0.19,0.9,5.18,1.76,10.43,3.15c4.79,1.26,9.78,3.05,11.68,3.92L102.33,69.03z"/>
		<path class="st2" d="M79.96,62.23c-0.08-1.89-7.05-10.41-8.28-11.72c-1.23-1.31,0.49-7.7-0.49-8.28
			c-0.98-0.57-2.62-0.49-2.62,0.98s0,5.74,0.49,6.56c0.49,0.82,10.37,11.39,10.54,12.7L79.96,62.23z"/>
		<path class="st3" d="M126.76,69.55c-1.58-3.37-1.88-6.43-8.81-7.42c-6.93-0.99-18.51-10.59-18.9-17.52
			c-0.4-6.93-1.39-25.34,0.3-28.9s7.03-10.69,7.03-12.47s-10.1,6.93-11.38,9.9c-1.29,2.97-10.1,26.82-4.55,38.5
			s19.99,18.01,19.99,18.01L126.76,69.55z"/>
		<path class="st3" d="M113.39,62.38c-0.14-4.91-0.59-10.04-2.3-11.44s-1.89,4.14-6.04,3.92C100.91,54.63,113.39,62.38,113.39,62.38
			z"/>
		<path class="st3" d="M99.04,14.67c0,0,9.21-3.15,9.45-4.57s-7.43-0.36-7.43-0.36L99.04,14.67z"/>
		<path class="st3" d="M97.79,19.24c0.36,1.6,2.49,4.5,4.12,4.5c2.97,0,2.72-3.67,3.13-3.79c0.8-0.22,0.99,2.22,1.57,3.07
			c0.86,1.24,2.14,0.9,2.47,1.27c1.06,1.2-11.17,9.92-11.17,12.12C97.91,38.61,97.79,19.24,97.79,19.24z"/>
		<path class="st0" d="M105.84,100.28c-1.34-2.58-7.35-5.51-8.72-7.81c3.44,0.23,3.33-5.51,3.1-7.23s-4.13-1.84-1.95-8.84
			c2.18-7,5.11-9.71,7.12-9.76c5.59-0.14,10.2,2.98,22.62,2.98v34.98c0,0-10.79,2.32-17.25,3.26
			C108.21,108.24,107.17,102.86,105.84,100.28z"/>
		
			<ellipse transform="matrix(0.1175 -0.9931 0.9931 0.1175 9.6696 167.1323)" class="st2" cx="98.87" cy="78.13" rx="4.22" ry="2.63"/>
		<path class="st4" d="M108.78,106.16c8.04-0.5,16.58-4.93,19.22-4.93v1.18C128,102.42,116.22,107.28,108.78,106.16z"/>
		<path class="st3" d="M103.7,100.71c-2.73,2.97-5.08,9.42-5.2,11.4c-0.12,1.98-0.87,9.29-3.1,10.16c8.67,3.1,10.78,5.7,10.78,8.55
			c4.8,1.26,8.2-0.83,11.99-0.35c5.78,0.73,9.83,3.23,9.83,3.23v-31.29c0,0-13.64,4.62-19.22,3.75S103.7,100.71,103.7,100.71z"/>
	</g>
	<g>
		<g>
			<path class="st0" d="M150.39,128.84c2.45-0.91,10.15-1.67,11.63-0.56c1.04,0.78,0.87,4.52,0.25,4.89
				c-0.62,0.37-10.21,3.16-11.39,3.16S148.23,129.64,150.39,128.84z"/>
			<path class="st0" d="M191.21,166.46c0,0-0.34-1.02-0.94-1.44c-0.61-0.41-2.96-1.89-2.96-1.89l-1.4,0.81c0,0,1.89,1.48,2.25,1.9
				c0.36,0.42,1.14,1.39,1.14,1.39L191.21,166.46z"/>
			<path class="st0" d="M194.69,169.53c-0.13-0.44-2.07-2.48-3.89-3.25l-0.65,0.57c0,0,1.54,1.39,1.86,2.19
				c0.32,0.8,1.53,1.18,1.53,1.18L194.69,169.53z"/>
			<path class="st0" d="M198.35,173.85c-0.34-1.32-1.79-2.56-2.81-3.23c-1.03-0.68-1.39-1.18-1.39-1.18l-0.88,0.6
				c0,0,2.12,1.9,2.16,3.21c0.74,0.54,1.13,0.8,1.33,1.19L198.35,173.85z"/>
			<path class="st0" d="M201.95,187.16c1.11-1.32,1.34-3.34,0.56-5.43s-4.77-8.3-4.77-8.3l-1.02,0.58c0,0,4.28,6.78,3.83,8.8
				c-0.45,2.03-1.29,2.76-1.21,3.34C199.42,186.86,201.46,187.74,201.95,187.16z"/>
			<path class="st0" d="M200.97,187.77c-0.03,0.88-0.7,2.46-2.11,2.9s-3.54-0.48-5.14-2.04c1.13,0.57,3.2,1.31,4.37,0.67
				c0.78-0.43,1.03-1.87,1.28-2.23C199.61,186.71,200.99,187.16,200.97,187.77z"/>
			<path class="st0" d="M201.48,187.24c0.04,0.7-0.4,1.92-1.55,2.16s-3.02-0.66-4.49-2.03c1,0.55,2.8,1.3,3.73,0.87
				c0.62-0.28,0.73-1.42,0.91-1.68S201.45,186.75,201.48,187.24z"/>
			<path class="st0" d="M200.07,186.16c-1.05,0.36-3.45,0.62-4.24,1.04C197.21,187.56,199.18,186.95,200.07,186.16z"/>
			<path class="st0" d="M183.13,158.22c0.29,0.79,4.32,4.57,4.9,4.86c-1.02,0.42-2.16,0.94-2.29,1.27c-0.65-1.26-1.76-2.89-2.3-3.42
				c-0.54-0.53-1.71-1.48-2.17-1.77L183.13,158.22z"/>
			<path class="st0" d="M163.76,130.07c1.38,0.07,12.64,13.28,15.74,19.4c3.1,6.12,7.54,10.39,8.93,11.08
				c-2.22,0.47-4.9,0.08-5.05,3.98c-1.49-4.43-3.55-6.23-5.28-8.82s-15.7-21.63-15.77-23.28C162.27,130.78,162.35,130,163.76,130.07
				z"/>
		</g>
		<path class="st0" d="M128,125.37c7.29,0,23.12,1.36,23.04,7.8c-0.05,4.15-17.24,2.3-23.04,10.36V125.37"/>
		<polygon class="st0" points="128,197.8 136.24,136.24 128,136.24 		"/>
		<g>
			<path class="st0" d="M164.86,188.02c0.89,0.72,4.11,11.9,2.73,17.75c-0.89,3.8-0.46,8.75,0.27,12.58
				c0.39,2.07,0.08,4.22,0.27,4.63c-1.76-0.74-4.17-0.3-6.95,4.06c1.51-3.87,2.69-12.95,2.32-17.61
				c-0.21-2.64-2.01-19.73-1.13-20.93C163.26,187.3,163.96,187.28,164.86,188.02z"/>
			<path class="st0" d="M156.96,179.72c0,0,6.83,3.68,7.06,5.98c0.23,2.3-1.38,4.07-2.99,4.07s-7.52-3.38-7.52-3.38L156.96,179.72z"
				/>
			<path class="st0" d="M167.01,234.76c0,0,0.15-2.1,0.04-3.4c-0.12-1.3-0.61-3.12-0.61-3.12l-1.92-0.03l-0.09,6.64L167.01,234.76z"
				/>
			<path class="st0" d="M164.45,241.41c0.45-0.34,1.59-4.47,1.62-6.84l-0.99-0.48c0,0-0.89,2.33-1.69,3.02
				c-0.8,0.7-1.67,3.35-1.67,3.35L164.45,241.41z"/>
			<path class="st0" d="M160.79,247.27c1.44-1.14,2.21-3.18,2.31-4.68c0.1-1.5,0.48-2.19,0.48-2.19l-1.43-0.59
				c0,0-1.89,4.29-3.54,5.11c-0.14,1.12-0.12,1.79-0.48,2.23L160.79,247.27z"/>
			<path class="st0" d="M149.25,252.22c1.21,0.82,2.96,0.74,4.71-0.27c1.75-1.01,6.85-5.52,6.85-5.52l-0.57-0.85
				c0,0-5.68,3.97-7.42,4.14c-1.18,0.12-3-0.31-3.93,0.33C148.39,250.4,148.71,251.86,149.25,252.22z"/>
			<path class="st0" d="M148.87,252.34c-0.64,0.52-2.17,1.02-3.34,0.3c-1.17-0.72-1.83-2.79-1.72-4.88
				c0.29,1.15,1.04,3.06,2.21,3.49c0.78,0.28,1.95-0.42,2.36-0.47S149.31,251.98,148.87,252.34z"/>
			<path class="st0" d="M149.56,252.39c-0.47,0.46-1.6,0.89-2.47,0.23c-0.88-0.66-1.39-2.54-1.33-4.42c0.23,1.04,0.8,2.77,1.68,3.17
				c0.58,0.26,1.44-0.36,1.74-0.39C149.48,250.94,149.89,252.07,149.56,252.39z"/>
			<path class="st0" d="M149.21,250.67c-0.9-0.52-2.56-2.05-3.34-2.35C146.47,249.51,148.11,250.53,149.21,250.67z"/>
			<path class="st0" d="M165.49,222.65c-0.13,0.91,1.12,5.48,1.51,6.04c-1.14-0.09-2.45-0.15-2.74,0.11
				c0.05-1.55-0.13-3.67-0.35-4.45s-0.33-1.19-0.59-1.71L165.49,222.65z"/>
		</g>
		<path class="st1" d="M130.88,216.17c16.19,0,19.66-12.51,27.02-38.43c5.06-17.84,6.18-27.11-0.82-39.61
			c-0.54-0.97-3.21-2.47-5.67-2.7c-4.99-0.48-17.44,1.35-19.09,2.7c-2.79,2.3-2.71,9.49-2.71,9.49s-2.96,62.86-0.59,66.61
			C130.16,216.03,130.88,216.17,130.88,216.17z"/>
		<path class="st0" d="M130.96,215.39c3.83,0.03,8.01-0.79,11.11-3.22c3.17-2.37,5.33-5.92,7.06-9.57c1.71-3.69,3.05-7.58,4.3-11.48
			c1.24-3.91,2.4-7.86,3.54-11.81c1.13-3.95,2.26-7.9,3.14-11.91c0.86-4,1.57-8.06,1.5-12.13c0.02-2.04-0.25-4.06-0.61-6.06
			c-0.43-1.99-0.99-3.95-1.77-5.84c-0.36-0.96-0.83-1.87-1.24-2.8l-0.71-1.36c-0.25-0.44-0.45-0.96-0.74-1.25
			c-1.43-1.27-3.45-2.05-5.4-2.22c-4.04-0.19-8.16,0.35-12.19,0.99c-2,0.36-4.07,0.72-5.89,1.44c-0.8,0.31-1.36,1.22-1.76,2.08
			c-0.4,0.89-0.66,1.87-0.85,2.86c-0.19,0.99-0.3,2-0.36,3.01l-0.11,3.08l-0.24,6.17l-0.41,12.33c-0.23,8.22-0.42,16.45-0.49,24.67
			c-0.03,4.11-0.03,8.22,0.07,12.32c0.05,2.05,0.13,4.1,0.29,6.11c0.08,0.98,0.19,2.06,0.42,2.84c0.03,0.12,0.04,0.1,0.08,0.19
			l0.2,0.3c0.13,0.19,0.27,0.39,0.42,0.56c0.14,0.18,0.29,0.34,0.44,0.48c0.07,0.07,0.15,0.13,0.22,0.18l0.09,0.06l0.03,0.01l0,0
			C131.06,215.41,131.19,215.43,130.96,215.39z M130.8,216.96c-0.26-0.05-0.16-0.04-0.24-0.06l-0.09-0.04l-0.15-0.07
			c-0.09-0.05-0.17-0.1-0.24-0.15c-0.15-0.1-0.27-0.2-0.38-0.3c-0.23-0.21-0.43-0.42-0.61-0.65c-0.18-0.22-0.35-0.45-0.51-0.67
			l-0.23-0.34c-0.08-0.14-0.21-0.38-0.24-0.51c-0.36-1.19-0.41-2.19-0.51-3.25c-0.16-2.09-0.2-4.15-0.23-6.22
			c-0.05-4.13,0-8.25,0.09-12.37c0.17-8.24,0.46-16.46,0.8-24.69l0.54-12.34l0.29-6.17l0.13-3.09c0.07-1.04,0.19-2.08,0.4-3.11
			c0.21-1.03,0.48-2.06,0.93-3.04c0.47-0.95,1.04-1.98,2.19-2.47c2.02-0.78,4.05-1.09,6.09-1.45c2.04-0.33,4.09-0.59,6.15-0.76
			c2.06-0.17,4.13-0.3,6.22-0.15c1.07,0.08,2.11,0.37,3.08,0.77c0.97,0.42,1.91,0.91,2.72,1.69c0.43,0.46,0.58,0.94,0.85,1.39
			l0.73,1.37c0.42,0.95,0.91,1.87,1.28,2.84c0.81,1.91,1.39,3.92,1.85,5.94c0.38,2.04,0.67,4.12,0.66,6.2
			c0.09,4.17-0.59,8.28-1.43,12.32c-0.86,4.04-1.96,8.02-3.07,11.98c-2.27,7.91-4.26,15.92-7.61,23.56
			c-1.72,3.76-3.9,7.53-7.34,10.18c-1.7,1.32-3.67,2.29-5.74,2.84c-1.03,0.3-2.08,0.48-3.14,0.62c-0.53,0.07-1.06,0.1-1.58,0.15
			L130.8,216.96z"/>
		<path class="st2" d="M132.97,67.82c-1.43-1.52-1.98-4.94-3.46-4.94s-0.16,7.73-0.16,7.73L132.97,67.82z"/>
		<path class="st2" d="M130.57,66.59c0.29-0.29,1.4-1.7,2.59-2.84c1.15-1.1,2.09-1.9,2.47-2.19c0.42-0.32,0.87-0.69,1-0.12
			c0.07,0.3-1.32,1.26-2.7,2.41c-1.27,1.05-2.52,2.29-2.97,2.82L130.57,66.59z"/>
		<path class="st2" d="M136.36,61.4c-0.24-0.58,0.67-4.13,0.85-4.7c0.19-0.57-1.23-2.26-1.01-2.57c0.22-0.31,0.72-0.52,0.93-0.07
			c0.21,0.45,0.81,1.73,0.77,2.05s-1.53,4.89-1.4,5.31L136.36,61.4z"/>
		<g>
			<path class="st0" d="M191.1,69.07c0,0,0.22,0.94-0.4,1.52c-0.62,0.58-3.67,3.49-3.67,3.49l-1.74-0.69l4.33-4.9L191.1,69.07z"/>
			<path class="st0" d="M193.89,65.79c-0.08,0.52-1.93,3.18-3.88,4.38l-0.83-0.54c0,0,1.52-1.85,1.75-2.82
				c0.22-0.97,1.54-1.61,1.54-1.61L193.89,65.79z"/>
			<path class="st0" d="M197.01,60.22c-0.16,1.56-1.29,3.23-2.34,4.18c-1.05,0.95-1.38,1.58-1.38,1.58l-1.1-0.53
				c0,0,2.09-2.53,1.92-4.04c0.75-0.74,1.15-1.1,1.31-1.59L197.01,60.22z"/>
			<path class="st0" d="M197.26,47.99c1.5,1.32,2.1,3.58,1.56,6.11s-2.15,6.21-2.15,6.21l-1.27-0.49c0,0,1.84-4.39,0.98-6.62
				c-0.86-2.24-1.95-2.93-1.96-3.61C194.43,48.77,196.6,47.41,197.26,47.99z"/>
			<path class="st0" d="M197.07,47.89c-0.12-1.01-1.03-2.77-2.69-3.15s-4.03,0.88-5.73,2.82c1.24-0.76,3.55-1.8,4.96-1.17
				c0.93,0.42,1.36,2.06,1.68,2.45S197.15,48.58,197.07,47.89z"/>
			<path class="st0" d="M197.72,48.44c-0.02-0.81-0.64-2.17-1.98-2.34s-3.42,1.04-4.98,2.75c1.09-0.72,3.1-1.75,4.21-1.35
				c0.74,0.27,0.97,1.56,1.2,1.85C196.4,49.65,197.73,49.01,197.72,48.44z"/>
			<path class="st0" d="M195.24,49.37c-1.25-0.32-4.03-0.4-4.97-0.8C191.82,48.03,194.14,48.54,195.24,49.37z"/>
			<path class="st0" d="M155.63,110.14c1.86-1.84,9.25-3.73,11.06-3.32c1.27,0.28,2.65,3.76,2.24,4.35s-7.76,7.08-10.18,7.43
				C157.58,118.76,153.98,111.76,155.63,110.14z"/>
			<path class="st0" d="M166.25,108.23c4.16-4.16,13.08-19.99,14.65-23.9s3.08-9.76,1.43-11.42c1.84,0.58,1.76-1.54,1.98-3.45
				c0.49,2.35,2.14,3.77,2.88,4.13c1.95,0.96,4.01-1.66,4.78-2.27c-0.75,2.71-0.18,3.23,1.9,3.28c-5.76,2.82-8.22,8.67-7.78,10.05
				c0.45,1.38,1.94,1.17,2.67,1.13c-4.83,1.3-8.04,7.95-7.38,8.65c0.65,0.69,1.74,0.34,2.43,0.3c-2.88,0.89-7.74,5.78-7.32,7.57
				c0.17,0.72,1.98,0.43,2.46,0.47c-2.82,0.77-3.68,1.31-4.97,2.97c-1.3,1.66-4.37,4.86-5.31,4.9L166.25,108.23z"/>
		</g>
		<path class="st2" d="M153.67,69.03c1.15-0.41,5.97-2.87,10.65-4.45c4.53-1.54,8.1-2.52,9.5-2.84c1.54-0.35,3.23-0.78,2.87,0.95
			c-0.19,0.9-5.18,1.76-10.43,3.15c-4.79,1.26-9.78,3.05-11.68,3.92L153.67,69.03z"/>
		<path class="st2" d="M176.04,62.23c0.08-1.89,7.05-10.41,8.28-11.72c1.23-1.31-0.49-7.7,0.49-8.28c0.98-0.57,2.62-0.49,2.62,0.98
			s0,5.74-0.49,6.56c-0.49,0.82-10.37,11.39-10.54,12.7L176.04,62.23z"/>
		<path class="st3" d="M129.24,69.55c1.58-3.37,1.88-6.43,8.81-7.42c6.93-0.99,18.51-10.59,18.9-17.52s1.39-25.34-0.3-28.9
			s-7.03-10.69-7.03-12.47s10.1,6.93,11.38,9.9s10.1,26.82,4.55,38.5c-5.54,11.68-19.99,18.01-19.99,18.01L129.24,69.55z"/>
		<path class="st3" d="M142.61,62.38c0.14-4.91,0.59-10.04,2.3-11.44c1.71-1.4,1.89,4.14,6.04,3.92
			C155.09,54.63,142.61,62.38,142.61,62.38z"/>
		<path class="st3" d="M156.96,14.67c0,0-9.21-3.15-9.45-4.57c-0.24-1.43,7.43-0.36,7.43-0.36L156.96,14.67z"/>
		<path class="st3" d="M158.21,19.24c-0.36,1.6-2.49,4.5-4.12,4.5c-2.97,0-2.72-3.67-3.13-3.79c-0.8-0.22-0.99,2.22-1.57,3.07
			c-0.86,1.24-2.14,0.9-2.47,1.27c-1.06,1.2,11.17,9.92,11.17,12.12C158.09,38.61,158.21,19.24,158.21,19.24z"/>
		<path class="st0" d="M150.16,100.28c1.34-2.58,7.35-5.51,8.72-7.81c-3.44,0.23-3.33-5.51-3.1-7.23c0.23-1.72,4.13-1.84,1.95-8.84
			c-2.18-7-5.11-9.71-7.12-9.76c-5.59-0.14-10.2,2.98-22.62,2.98v34.98c0,0,10.79,2.32,17.25,3.26
			C147.79,108.24,148.83,102.86,150.16,100.28z"/>
		
			<ellipse transform="matrix(0.9931 -0.1175 0.1175 0.9931 -8.0901 19.0007)" class="st2" cx="157.13" cy="78.13" rx="2.63" ry="4.22"/>
		<path class="st4" d="M147.22,106.16c-8.04-0.5-16.58-4.93-19.22-4.93v1.18C128,102.42,139.78,107.28,147.22,106.16z"/>
		<path class="st3" d="M152.3,100.71c2.73,2.97,5.08,9.42,5.2,11.4c0.12,1.98,0.87,9.29,3.1,10.16c-8.67,3.1-10.78,5.7-10.78,8.55
			c-4.8,1.26-8.2-0.83-11.99-0.35c-5.78,0.73-9.83,3.23-9.83,3.23v-31.29c0,0,13.64,4.62,19.22,3.75S152.3,100.71,152.3,100.71z"/>
	</g>
</g>
</svg>
