<?xml version="1.0" encoding="utf-8"?>
<!-- Generator: Adobe Illustrator 22.1.0, SVG Export Plug-In . SVG Version: 6.00 Build 0)  -->
<svg version="1.1" id="Layer_1" xmlns="http://www.w3.org/2000/svg" xmlns:xlink="http://www.w3.org/1999/xlink" x="0px" y="0px"
	 viewBox="0 0 256 256" style="enable-background:new 0 0 256 256;" xml:space="preserve">
<style type="text/css">
	.st0{fill:#231F20;}
	.st1{fill:#404041;}
	.st2{fill:#30302F;}
</style>
<g>
	<g>
		<path class="st0" d="M95.34,97.58c-1.77-2.09-3.99-0.75-5.49-1.97s-1.95-3.5-4.38-4.88c-2.2-1.25-4.48,4.06-5.59,5.41
			c-1.11,1.35-2.57,1.91-1.8,3.12c2.41,3.74,7.99,6.45,11.92,6.37S96.2,98.6,95.34,97.58z"/>
		<path class="st0" d="M79.1,98.52c-3.75,1.23-10.64-12.96-15.15-13.61c1.14-1.74,1.13-2.43,0.98-3.28
			c-0.15-0.85-1.39-7.36-6.97-8.15c2.45-3.25,1.39-5.61-2.01-6c2.53-1.14,4.56-0.54,5.95-0.7c1.39-0.16,1.67-0.99,3.09-0.67
			c1.22,0.27,2.11,3.62,2.95,4.95c2.97,4.73,3.2,8.01,5.48,12.06s3.7,5.8,4.31,6.29s3.48,2.63,3.66,3.01
			c0.17,0.38,0.7,2.85,0.32,3.71C81.33,96.98,80.37,98.1,79.1,98.52z"/>
		<path class="st0" d="M57.31,64.45c0,0-0.24,1.03,0.44,1.65c0.68,0.63,3.22,2.64,3.22,2.64l1.89-0.75l-3.95-4.17L57.31,64.45z"/>
		<path class="st0" d="M54.29,60.88c0.09,0.57,2.1,3.46,4.22,4.76l0.91-0.58c0,0-1.66-2.01-1.9-3.06s-1.68-1.75-1.68-1.75
			L54.29,60.88z"/>
		<path class="st0" d="M50.89,54.82c0.17,1.7,1.4,3.52,2.55,4.54c1.15,1.03,1.5,1.72,1.5,1.72l1.2-0.58c0,0-2.27-2.75-2.09-4.39
			c-0.82-0.81-1.26-1.2-1.42-1.73L50.89,54.82z"/>
		<path class="st0" d="M50.62,41.52c-1.63,1.44-2.29,3.9-1.7,6.64s2.33,6.76,2.33,6.76l1.38-0.53c0,0-2.01-4.77-1.07-7.2
			s2.12-3.19,2.13-3.93C53.7,42.36,51.34,40.88,50.62,41.52z"/>
		<path class="st0" d="M50.82,41.4c0.13-1.1,1.13-3.01,2.93-3.42c1.8-0.41,4.38,0.96,6.23,3.07c-1.35-0.83-3.87-1.96-5.39-1.27
			c-1.01,0.46-1.48,2.24-1.83,2.66C52.41,42.86,50.73,42.16,50.82,41.4z"/>
		<path class="st0" d="M50.12,42.01c0.02-0.88,0.69-2.36,2.16-2.55c1.46-0.19,3.72,1.13,5.42,2.99c-1.19-0.78-3.37-1.91-4.58-1.47
			c-0.8,0.29-1.05,1.7-1.3,2.02C51.56,43.32,50.11,42.62,50.12,42.01z"/>
		<path class="st0" d="M52.82,43.02c1.36-0.34,4.38-0.43,5.41-0.87C56.54,41.55,54.01,42.11,52.82,43.02z"/>
		<path class="st0" d="M122.94,63.7c-3.24,0.9-7.12,5.5-7.48,5.67c-0.36,0.17-4.05,4.09-4.05,4.99s2.07,3.1,3.78,3.27
			c1.71,0.17,6.66-6.37,6.66-6.37L122.94,63.7z"/>
		<path class="st0" d="M117.66,68.58c-1.33-0.74-3.82-1.1-6.17-0.23c0,0-0.72,1.25-0.24,1.81c0.48,0.56,4.65-0.99,5.71-0.27
			L117.66,68.58z"/>
		<path class="st0" d="M107.76,68.77c-1.18,0.25-2.78,0.41-1.54-0.84c1.23-1.25,3.75-3.77,1.63-4.9c-2.12-1.12-3.74,1.84-4.11,3.35
			c-0.26,1.02-1.35,5.74,4.16,3.81L107.76,68.77z"/>
		<path class="st0" d="M128,138.03c-6.35,0-7.91-11.46-12.94-12.64c-9.39-2.2-16.89,0.83-16.89-3.66c0-6.89,11.63-8.66,29.83-8.66"
			/>
		<path class="st0" d="M67.91,163.24c0,0,0.09-1.17,0.62-1.76s2.64-2.77,2.64-2.77l1.69,0.5c0,0-1.62,2.05-1.89,2.59
			c-0.27,0.54-0.84,1.77-0.84,1.77L67.91,163.24z"/>
		<path class="st0" d="M65.02,167.38c0.03-0.5,1.54-3.15,3.27-4.44l0.83,0.43c0,0-1.27,1.86-1.4,2.79
			c-0.13,0.93-1.31,1.64-1.31,1.64L65.02,167.38z"/>
		<path class="st0" d="M62.27,172.89c0.01-1.48,1.23-3.16,2.14-4.14c0.91-0.98,1.16-1.61,1.16-1.61l1.08,0.41
			c0,0-1.75,2.56-1.45,3.95c-0.64,0.76-0.99,1.14-1.09,1.6L62.27,172.89z"/>
		<path class="st0" d="M61.91,187.88c-1.52-1.11-2.28-3.18-1.99-5.6s2.9-10.01,2.9-10.01l1.23,0.35c0,0-2.77,8.27-1.77,10.29
			s2.08,2.58,2.15,3.22C64.5,186.91,62.58,188.37,61.91,187.88z"/>
		<path class="st0" d="M63.1,188.27c0.26,0.92,1.38,2.42,2.98,2.52s3.62-1.42,4.91-3.48c-1.04,0.9-3.04,2.21-4.44,1.83
			c-0.93-0.25-1.58-1.71-1.93-2.03C64.26,186.8,62.93,187.63,63.1,188.27z"/>
		<path class="st0" d="M62.42,187.85c0.14,0.75,0.92,1.92,2.2,1.88c1.28-0.04,3.02-1.48,4.22-3.31c-0.91,0.83-2.62,2.09-3.72,1.89
			c-0.73-0.14-1.13-1.31-1.39-1.55S62.33,187.32,62.42,187.85z"/>
		<path class="st0" d="M63.63,186.34c1.21,0.11,3.81-0.23,4.75,0C67.02,187.08,64.78,186.95,63.63,186.34z"/>
		<path class="st0" d="M74.32,152.44c-0.11,0.91-3.38,5.95-3.93,6.4c1.18,0.18,2.52,0.43,2.75,0.75c0.37-1.5,1.12-3.51,1.55-4.21
			c0.43-0.7,1.43-2,1.83-2.43L74.32,152.44z"/>
		<path class="st0" d="M108.89,68.45c-0.41-0.2-1.37,0.39-1.24,0.97c0.13,0.58,1,0.75,1.47,0.48
			C109.59,69.63,109.3,68.66,108.89,68.45z"/>
		<path class="st0" d="M110.16,68.32c-0.37-0.22-1.18,0.31-1.03,0.9c0.15,0.59,0.92,0.81,1.32,0.56
			C110.84,69.53,110.53,68.54,110.16,68.32z"/>
		<path class="st0" d="M111.49,68.35c-0.33-0.28-1.22,0.12-1.18,0.72c0.04,0.6,0.77,0.95,1.2,0.77
			C111.95,69.65,111.82,68.63,111.49,68.35z"/>
		<path class="st1" d="M83.23,127.27c-2.01,0.12-4.9,3.36-5.43,6.2c-0.53,2.84,5.61,3.62,6.49,3.12s3.04-3.47,2.76-4.7
			C86.78,130.65,84.63,127.19,83.23,127.27z"/>
		<path class="st0" d="M81.73,131.46c-1.44,0.43-4.13,3.53-5.83,10.8c-1.7,7.27-5.28,12.93-6.58,14.01c2.46-0.07,5.2-1.18,6.36,2.9
			c0.43-5.07,2.14-7.5,3.31-10.69c1.16-3.19,5.84-12.49,5.49-14.25S83.2,131.02,81.73,131.46z"/>
		<path class="st0" d="M81.53,233.15c0,0-0.17-2.29-0.04-3.7s0.67-3.4,0.67-3.4l2.09-0.04l0.09,7.23L81.53,233.15z"/>
		<path class="st0" d="M84.31,240.39c-0.49-0.37-1.73-4.86-1.77-7.45l1.07-0.53c0,0,0.97,2.53,1.83,3.29
			c0.87,0.76,1.81,3.64,1.81,3.64L84.31,240.39z"/>
		<path class="st0" d="M88.29,246.77c-1.57-1.24-2.4-3.46-2.51-5.09s-0.52-2.39-0.52-2.39l1.55-0.64c0,0,2.05,4.67,3.85,5.56
			c0.15,1.22,0.13,1.95,0.52,2.43L88.29,246.77z"/>
		<path class="st0" d="M100.84,252.16c-1.31,0.89-3.22,0.8-5.13-0.3c-1.91-1.1-7.45-6.01-7.45-6.01l0.62-0.92
			c0,0,6.18,4.31,8.07,4.51c1.29,0.13,3.26-0.34,4.27,0.36C101.78,250.17,101.42,251.76,100.84,252.16z"/>
		<path class="st0" d="M101.25,252.29c0.7,0.57,2.36,1.11,3.63,0.32s1.99-3.04,1.87-5.31c-0.31,1.25-1.13,3.33-2.4,3.79
			c-0.85,0.31-2.12-0.46-2.57-0.51C101.35,250.54,100.77,251.9,101.25,252.29z"/>
		<path class="st0" d="M100.5,252.33c0.51,0.5,1.74,0.97,2.69,0.25s1.51-2.76,1.44-4.8c-0.25,1.13-0.87,3.01-1.82,3.44
			c-0.63,0.29-1.57-0.39-1.9-0.43S100.15,251.98,100.5,252.33z"/>
		<path class="st0" d="M100.88,250.47c0.98-0.57,2.78-2.23,3.63-2.56C103.87,249.21,102.09,250.31,100.88,250.47z"/>
		<path class="st0" d="M83.18,219.99c0.15,0.99-1.22,5.96-1.64,6.57c1.24-0.1,2.66-0.17,2.98,0.12c-0.06-1.68,0.14-3.99,0.38-4.84
			c0.24-0.85,0.36-1.3,0.65-1.85L83.18,219.99z"/>
		<path class="st0" d="M80.84,181.32c-2.01,1.2-3.94,6.72-3.59,10.51c0.35,3.79,6.87,1.54,7.62,0.46s2.01-5.88,1.34-7.26
			C85.53,183.64,82.24,180.48,80.84,181.32z"/>
		<path class="st0" d="M80.86,191.06c-0.97,0.78-2.91,4.19-1.42,10.56c0.97,4.14,0.5,9.52-0.29,13.68
			c-0.43,2.25-0.08,4.59-0.29,5.04c1.91-0.8,5.99-0.33,9.01,4.42c-1.64-4.21-2.93-14.09-2.53-19.15c0.23-2.88-0.28-11.83-1.24-13.14
			C83.13,191.16,81.84,190.27,80.86,191.06z"/>
		<path class="st1" d="M128,215.46c-24.94,0-49.39-18.28-49.39-46.26c0-22.2-1.82-35.98,8.96-50.94c0.83-1.16,5.03,0.8,8.82,0.52
			c7.68-0.58,17.59,0.9,20.13,2.52c4.3,2.75,11.48,12.08,11.48,12.08V215.46z"/>
		<path class="st2" d="M122.11,66.73c-1.34,7.05-10.74,11.65-18.34,17.26C97.5,88.62,92.94,94.38,90.86,99
			c-4.59,10.23-1.91,14.37,1.02,16.32c2.93,1.95,8.58,1.41,14.32,1.41c5.74,0,14.15,3.62,21.8,3.62V11.29c0,0-1.01,0.25-5.43-2.21
			c-2.45-1.37-3.19-4.65-5.79-5.82c-2.91-1.32,0.1,2.65-1.46,4.83c-1.91,2.67-4.28,3.9-5.5,4.62c-2.9,1.72-6.05,2.57-6.45,3.38
			c-1.59,3.21,3.59,1.32,8.43,0.89c2.99-0.27,6.04,0.36,8.27,2.01c4.53,3.35,4.75,18.05,4.71,22.48
			C124.7,54.86,122.54,64.47,122.11,66.73z"/>
		<path class="st0" d="M128.03,120.35c-7.79-0.22-10.36-1.89-17.61-3.11c-6.91-1.16-9.39,0.08-11.49-0.72
			c-0.54-0.21,4.15-4.67,12.04-7.95c5.16-2.15,11.8-2,13.05-6.06c2.17-7.04-3.3-45.37-3.03-45.63c0.51-0.51,0.76,0.01,1.39,1.27
			c0.88,1.77,1.76,5.02,2.28,5.53c0.83,0.84,3.71,3.62,3.71,3.62L128.03,120.35z"/>
		<path class="st0" d="M128.13,215.58c-0.92,0.02-1.94,0.05-2.85,0c-0.91-0.06-1.82-0.08-2.73-0.19c-1.81-0.17-3.62-0.44-5.41-0.8
			c-3.58-0.71-7.09-1.8-10.44-3.25c-6.73-2.87-12.87-7.17-17.76-12.68c-4.89-5.49-8.42-12.24-10.08-19.45
			c-0.84-3.6-1.17-7.33-1.2-10.99l-0.21-10.88c-0.09-7.26-0.26-14.63,1.19-21.96c0.72-3.65,1.86-7.25,3.46-10.64
			c0.76-1.71,1.72-3.33,2.68-4.93l1.54-2.34l0.05-0.07l0.16-0.2c0.12-0.14,0.25-0.24,0.39-0.34c0.27-0.18,0.53-0.28,0.76-0.34
			c0.45-0.12,0.79-0.12,1.09-0.12c0.6,0.01,1.1,0.09,1.57,0.16c1.87,0.32,3.55,0.68,5.15,0.68c0.71,0,1.72-0.12,2.65-0.15
			c0.94-0.04,1.87-0.05,2.8-0.05c3.73,0.04,7.42,0.34,11.13,1.03c0.93,0.17,1.86,0.39,2.81,0.66c0.48,0.16,0.95,0.29,1.46,0.51
			c0.45,0.16,1.15,0.55,1.51,0.81c1.7,1.18,3.05,2.47,4.38,3.8c2.63,2.67,5,5.44,7.33,8.34l0,0l0.38,0.46l0.03,0.73
			c0.26,6.96,0.3,13.95,0.4,20.97c0.04,7.01,0,14.02-0.08,21.01c-0.1,6.98-0.23,13.95-0.4,20.85l-0.27,10.32
			c-0.06,1.7-0.04,3.47-0.18,5.09C129.25,213.21,128.91,214.65,128.13,215.58z M127.88,215.34c-0.79-2.49-1.12-4.47-1.3-6.3
			c-0.14-1.8-0.12-3.44-0.18-5.17l-0.27-10.2c-0.18-6.78-0.3-13.49-0.4-20.19c-0.08-6.69-0.12-13.36-0.08-20.03
			c0.1-6.66,0.14-13.35,0.4-20.07l0.41,1.19l0,0c-2.15-2.81-4.45-5.6-6.87-8.15c-1.21-1.26-2.48-2.51-3.75-3.42
			c-0.97-0.73-2.79-1.16-4.45-1.53c-3.41-0.71-6.97-1.08-10.5-1.19c-0.88-0.02-1.76-0.03-2.64,0c-0.89,0.01-1.68,0.1-2.79,0.09
			c-2.04-0.04-3.92-0.52-5.62-0.83c-0.42-0.08-0.82-0.14-1.13-0.15c-0.15-0.01-0.27,0.01-0.26,0.01c0,0,0.05-0.02,0.14-0.07
			c0.05-0.03,0.08-0.07,0.14-0.12c0.02-0.02,0.05-0.07,0.05-0.07l-0.05,0.07l-1.5,2.18c-0.94,1.49-1.87,2.99-2.61,4.58
			c-1.56,3.14-2.7,6.49-3.46,9.95c-1.52,6.92-1.53,14.19-1.58,21.42l-0.02,10.89c-0.05,3.6,0.2,7.14,0.93,10.63
			c1.46,6.97,4.73,13.56,9.37,19c4.64,5.46,10.58,9.81,17.14,12.77c3.28,1.5,6.72,2.64,10.24,3.42c1.76,0.4,3.54,0.7,5.34,0.9
			c0.89,0.13,1.8,0.17,2.7,0.25L127.88,215.34z"/>
	</g>
	<g>
		<path class="st0" d="M160.66,97.58c1.77-2.09,3.99-0.75,5.49-1.97s1.95-3.5,4.38-4.88c2.2-1.25,4.48,4.06,5.59,5.41
			c1.11,1.35,2.57,1.91,1.8,3.12c-2.41,3.74-7.99,6.45-11.92,6.37C162.07,105.55,159.8,98.6,160.66,97.58z"/>
		<path class="st0" d="M176.9,98.52c3.75,1.23,10.64-12.96,15.15-13.61c-1.14-1.74-1.13-2.43-0.98-3.28
			c0.15-0.85,1.39-7.36,6.97-8.15c-2.45-3.25-1.39-5.61,2.01-6c-2.53-1.14-4.56-0.54-5.95-0.7c-1.39-0.16-1.67-0.99-3.09-0.67
			c-1.22,0.27-2.11,3.62-2.95,4.95c-2.97,4.73-3.2,8.01-5.48,12.06s-3.7,5.8-4.31,6.29c-0.61,0.49-3.48,2.63-3.66,3.01
			c-0.17,0.38-0.7,2.85-0.32,3.71C174.67,96.98,175.63,98.1,176.9,98.52z"/>
		<path class="st0" d="M198.69,64.45c0,0,0.24,1.03-0.44,1.65c-0.68,0.63-3.22,2.64-3.22,2.64l-1.89-0.75l3.95-4.17L198.69,64.45z"
			/>
		<path class="st0" d="M201.71,60.88c-0.09,0.57-2.1,3.46-4.22,4.76l-0.91-0.58c0,0,1.66-2.01,1.9-3.06
			c0.24-1.05,1.68-1.75,1.68-1.75L201.71,60.88z"/>
		<path class="st0" d="M205.11,54.82c-0.17,1.7-1.4,3.52-2.55,4.54c-1.15,1.03-1.5,1.72-1.5,1.72l-1.2-0.58c0,0,2.27-2.75,2.09-4.39
			c0.82-0.81,1.26-1.2,1.42-1.73L205.11,54.82z"/>
		<path class="st0" d="M205.38,41.52c1.63,1.44,2.29,3.9,1.7,6.64s-2.33,6.76-2.33,6.76l-1.38-0.53c0,0,2.01-4.77,1.07-7.2
			s-2.12-3.19-2.13-3.93C202.3,42.36,204.66,40.88,205.38,41.52z"/>
		<path class="st0" d="M205.18,41.4c-0.13-1.1-1.13-3.01-2.93-3.42c-1.8-0.41-4.38,0.96-6.23,3.07c1.35-0.83,3.87-1.96,5.39-1.27
			c1.01,0.46,1.48,2.24,1.83,2.66C203.59,42.86,205.27,42.16,205.18,41.4z"/>
		<path class="st0" d="M205.88,42.01c-0.02-0.88-0.69-2.36-2.16-2.55c-1.46-0.19-3.72,1.13-5.42,2.99c1.19-0.78,3.37-1.91,4.58-1.47
			c0.8,0.29,1.05,1.7,1.3,2.02C204.44,43.32,205.89,42.62,205.88,42.01z"/>
		<path class="st0" d="M203.18,43.02c-1.36-0.34-4.38-0.43-5.41-0.87C199.46,41.55,201.99,42.11,203.18,43.02z"/>
		<path class="st0" d="M133.06,63.7c3.24,0.9,7.12,5.5,7.48,5.67c0.36,0.17,4.05,4.09,4.05,4.99s-2.07,3.1-3.78,3.27
			c-1.71,0.17-6.66-6.37-6.66-6.37L133.06,63.7z"/>
		<path class="st0" d="M138.34,68.58c1.33-0.74,3.82-1.1,6.17-0.23c0,0,0.72,1.25,0.24,1.81c-0.48,0.56-4.65-0.99-5.71-0.27
			L138.34,68.58z"/>
		<path class="st0" d="M148.24,68.77c1.18,0.25,2.78,0.41,1.54-0.84c-1.23-1.25-3.75-3.77-1.63-4.9c2.12-1.12,3.74,1.84,4.11,3.35
			c0.26,1.02,1.35,5.74-4.16,3.81L148.24,68.77z"/>
		<path class="st0" d="M128,138.03c6.35,0,7.91-11.46,12.94-12.64c9.39-2.2,16.89,0.83,16.89-3.66c0-6.89-11.63-8.66-29.83-8.66"/>
		<path class="st0" d="M188.09,163.24c0,0-0.09-1.17-0.62-1.76s-2.64-2.77-2.64-2.77l-1.69,0.5c0,0,1.62,2.05,1.89,2.59
			c0.27,0.54,0.84,1.77,0.84,1.77L188.09,163.24z"/>
		<path class="st0" d="M190.98,167.38c-0.03-0.5-1.54-3.15-3.27-4.44l-0.83,0.43c0,0,1.27,1.86,1.4,2.79
			c0.13,0.93,1.31,1.64,1.31,1.64L190.98,167.38z"/>
		<path class="st0" d="M193.73,172.89c-0.01-1.48-1.23-3.16-2.14-4.14c-0.91-0.98-1.16-1.61-1.16-1.61l-1.08,0.41
			c0,0,1.75,2.56,1.45,3.95c0.64,0.76,0.99,1.14,1.09,1.6L193.73,172.89z"/>
		<path class="st0" d="M194.09,187.88c1.52-1.11,2.28-3.18,1.99-5.6c-0.29-2.42-2.9-10.01-2.9-10.01l-1.23,0.35
			c0,0,2.77,8.27,1.77,10.29c-1,2.03-2.08,2.58-2.15,3.22C191.5,186.91,193.42,188.37,194.09,187.88z"/>
		<path class="st0" d="M192.9,188.27c-0.26,0.92-1.38,2.42-2.98,2.52s-3.62-1.42-4.91-3.48c1.04,0.9,3.04,2.21,4.44,1.83
			c0.93-0.25,1.58-1.71,1.93-2.03C191.74,186.8,193.07,187.63,192.9,188.27z"/>
		<path class="st0" d="M193.58,187.85c-0.14,0.75-0.92,1.92-2.2,1.88c-1.28-0.04-3.02-1.48-4.22-3.31c0.91,0.83,2.62,2.09,3.72,1.89
			c0.73-0.14,1.13-1.31,1.39-1.55C192.53,186.52,193.67,187.32,193.58,187.85z"/>
		<path class="st0" d="M192.37,186.34c-1.21,0.11-3.81-0.23-4.75,0C188.98,187.08,191.22,186.95,192.37,186.34z"/>
		<path class="st0" d="M181.68,152.44c0.11,0.91,3.38,5.95,3.93,6.4c-1.18,0.18-2.52,0.43-2.75,0.75c-0.37-1.5-1.12-3.51-1.55-4.21
			c-0.43-0.7-1.43-2-1.83-2.43L181.68,152.44z"/>
		<path class="st0" d="M147.11,68.45c0.41-0.2,1.37,0.39,1.24,0.97c-0.13,0.58-1,0.75-1.47,0.48
			C146.41,69.63,146.7,68.66,147.11,68.45z"/>
		<path class="st0" d="M145.84,68.32c0.37-0.22,1.18,0.31,1.03,0.9c-0.15,0.59-0.92,0.81-1.32,0.56
			C145.16,69.53,145.47,68.54,145.84,68.32z"/>
		<path class="st0" d="M144.51,68.35c0.33-0.28,1.22,0.12,1.18,0.72c-0.04,0.6-0.77,0.95-1.2,0.77S144.18,68.63,144.51,68.35z"/>
		<path class="st1" d="M172.77,127.27c2.01,0.12,4.9,3.36,5.43,6.2c0.53,2.84-5.61,3.62-6.49,3.12s-3.04-3.47-2.76-4.7
			C169.22,130.65,171.37,127.19,172.77,127.27z"/>
		<path class="st0" d="M174.27,131.46c1.44,0.43,4.13,3.53,5.83,10.8c1.7,7.27,5.28,12.93,6.58,14.01c-2.46-0.07-5.2-1.18-6.36,2.9
			c-0.43-5.07-2.14-7.5-3.31-10.69s-5.84-12.49-5.49-14.25C171.88,132.48,172.8,131.02,174.27,131.46z"/>
		<path class="st0" d="M174.47,233.15c0,0,0.17-2.29,0.04-3.7s-0.67-3.4-0.67-3.4l-2.09-0.04l-0.09,7.23L174.47,233.15z"/>
		<path class="st0" d="M171.69,240.39c0.49-0.37,1.73-4.86,1.77-7.45l-1.07-0.53c0,0-0.97,2.53-1.83,3.29
			c-0.87,0.76-1.81,3.64-1.81,3.64L171.69,240.39z"/>
		<path class="st0" d="M167.71,246.77c1.57-1.24,2.4-3.46,2.51-5.09c0.11-1.64,0.52-2.39,0.52-2.39l-1.55-0.64
			c0,0-2.05,4.67-3.85,5.56c-0.15,1.22-0.13,1.95-0.52,2.43L167.71,246.77z"/>
		<path class="st0" d="M155.16,252.16c1.31,0.89,3.22,0.8,5.13-0.3c1.91-1.1,7.45-6.01,7.45-6.01l-0.62-0.92
			c0,0-6.18,4.31-8.07,4.51c-1.29,0.13-3.26-0.34-4.27,0.36C154.22,250.17,154.58,251.76,155.16,252.16z"/>
		<path class="st0" d="M154.75,252.29c-0.7,0.57-2.36,1.11-3.63,0.32s-1.99-3.04-1.87-5.31c0.31,1.25,1.13,3.33,2.4,3.79
			c0.85,0.31,2.12-0.46,2.57-0.51C154.65,250.54,155.23,251.9,154.75,252.29z"/>
		<path class="st0" d="M155.5,252.33c-0.51,0.5-1.74,0.97-2.69,0.25c-0.95-0.72-1.51-2.76-1.44-4.8c0.25,1.13,0.87,3.01,1.82,3.44
			c0.63,0.29,1.57-0.39,1.9-0.43S155.85,251.98,155.5,252.33z"/>
		<path class="st0" d="M155.12,250.47c-0.98-0.57-2.78-2.23-3.63-2.56C152.13,249.21,153.91,250.31,155.12,250.47z"/>
		<path class="st0" d="M172.82,219.99c-0.15,0.99,1.22,5.96,1.64,6.57c-1.24-0.1-2.66-0.17-2.98,0.12c0.06-1.68-0.14-3.99-0.38-4.84
			c-0.24-0.85-0.36-1.3-0.65-1.85L172.82,219.99z"/>
		<path class="st0" d="M175.16,181.32c2.01,1.2,3.94,6.72,3.59,10.51c-0.35,3.79-6.87,1.54-7.62,0.46
			c-0.75-1.08-2.01-5.88-1.34-7.26C170.47,183.64,173.76,180.48,175.16,181.32z"/>
		<path class="st0" d="M175.14,191.06c0.97,0.78,2.91,4.19,1.42,10.56c-0.97,4.14-0.5,9.52,0.29,13.68
			c0.43,2.25,0.08,4.59,0.29,5.04c-1.91-0.8-5.99-0.33-9.01,4.42c1.64-4.21,2.93-14.09,2.53-19.15c-0.23-2.88,0.28-11.83,1.24-13.14
			C172.87,191.16,174.16,190.27,175.14,191.06z"/>
		<path class="st1" d="M128,215.46c24.94,0,49.39-18.28,49.39-46.26c0-22.2,1.82-35.98-8.96-50.94c-0.83-1.16-5.03,0.8-8.82,0.52
			c-7.68-0.58-17.59,0.9-20.13,2.52c-4.3,2.75-11.48,12.08-11.48,12.08V215.46z"/>
		<path class="st2" d="M133.89,66.73c1.34,7.05,10.74,11.65,18.34,17.26c6.27,4.63,10.83,10.39,12.9,15.01
			c4.59,10.23,1.91,14.37-1.02,16.32c-2.93,1.95-8.58,1.41-14.32,1.41s-14.15,3.62-21.8,3.62V11.29c0,0,1.01,0.25,5.43-2.21
			c2.45-1.37,3.19-4.65,5.79-5.82c2.91-1.32-0.1,2.65,1.46,4.83c1.91,2.67,4.28,3.9,5.5,4.62c2.9,1.72,6.05,2.57,6.45,3.38
			c1.59,3.21-3.59,1.32-8.43,0.89c-2.99-0.27-6.04,0.36-8.27,2.01c-4.53,3.35-4.75,18.05-4.71,22.48
			C131.3,54.86,133.46,64.47,133.89,66.73z"/>
		<path class="st0" d="M127.97,120.35c7.79-0.22,10.36-1.89,17.61-3.11c6.91-1.16,9.39,0.08,11.49-0.72
			c0.54-0.21-4.15-4.67-12.04-7.95c-5.16-2.15-11.8-2-13.05-6.06c-2.17-7.04,3.3-45.37,3.03-45.63c-0.51-0.51-0.76,0.01-1.39,1.27
			c-0.88,1.77-1.76,5.02-2.28,5.53c-0.83,0.84-3.71,3.62-3.71,3.62L127.97,120.35z"/>
		<path class="st0" d="M128.12,215.34l2.59-0.16c0.9-0.08,1.8-0.12,2.7-0.25c1.79-0.2,3.58-0.51,5.34-0.9
			c3.53-0.77,6.96-1.92,10.24-3.42c6.57-2.96,12.5-7.31,17.14-12.77c4.65-5.45,7.92-12.03,9.38-19c0.74-3.5,0.98-7.03,0.93-10.63
			l-0.02-10.89c-0.05-7.23-0.06-14.49-1.58-21.42c-0.75-3.46-1.9-6.8-3.46-9.95c-0.75-1.59-1.67-3.09-2.61-4.58l-1.5-2.18
			l-0.05-0.07c0,0,0.03,0.05,0.05,0.07c0.05,0.05,0.09,0.09,0.14,0.12c0.08,0.06,0.14,0.07,0.14,0.07c0.01,0-0.11-0.02-0.26-0.01
			c-0.31,0.01-0.71,0.07-1.13,0.15c-1.69,0.32-3.58,0.79-5.62,0.83c-1.11,0.01-1.9-0.08-2.79-0.09c-0.88-0.02-1.76-0.01-2.64,0
			c-3.52,0.11-7.09,0.48-10.5,1.19c-1.66,0.37-3.47,0.8-4.45,1.53c-1.27,0.91-2.54,2.16-3.75,3.42c-2.42,2.55-4.72,5.35-6.87,8.15
			l0,0l0.41-1.19c0.26,6.72,0.3,13.41,0.4,20.07c0.04,6.67,0,13.34-0.08,20.03c-0.1,6.7-0.23,13.41-0.4,20.19l-0.27,10.2
			c-0.06,1.72-0.04,3.37-0.18,5.17C129.24,210.86,128.91,212.84,128.12,215.34z M127.87,215.58c-0.79-0.93-1.12-2.37-1.3-3.96
			c-0.14-1.62-0.12-3.4-0.18-5.09l-0.27-10.32c-0.18-6.9-0.3-13.87-0.4-20.85c-0.08-6.99-0.12-14-0.08-21.01
			c0.1-7.02,0.14-14.01,0.4-20.97l0.03-0.73l0.38-0.46l0,0c2.32-2.9,4.7-5.67,7.33-8.34c1.33-1.32,2.68-2.62,4.38-3.8
			c0.35-0.27,1.06-0.65,1.51-0.81c0.51-0.22,0.98-0.35,1.46-0.51c0.95-0.26,1.88-0.49,2.81-0.66c3.71-0.69,7.4-0.99,11.13-1.03
			c0.93,0,1.87,0.01,2.8,0.05c0.92,0.03,1.94,0.15,2.65,0.15c1.6,0.01,3.28-0.36,5.15-0.68c0.48-0.07,0.97-0.15,1.57-0.16
			c0.3,0,0.64,0,1.09,0.12c0.22,0.06,0.49,0.16,0.76,0.34c0.14,0.1,0.27,0.2,0.39,0.34l0.16,0.2l0.05,0.07l1.54,2.34
			c0.96,1.6,1.92,3.22,2.68,4.93c1.6,3.39,2.74,6.99,3.46,10.64c1.44,7.33,1.28,14.7,1.19,21.96l-0.21,10.88
			c-0.02,3.66-0.36,7.39-1.2,10.99c-1.66,7.21-5.2,13.96-10.08,19.45c-4.89,5.51-11.03,9.82-17.76,12.68
			c-3.36,1.45-6.86,2.54-10.44,3.25c-1.79,0.37-3.59,0.63-5.41,0.8c-0.9,0.11-1.82,0.13-2.73,0.19
			C129.81,215.63,128.8,215.6,127.87,215.58z"/>
	</g>
</g>
</svg>
