<?xml version="1.0" encoding="utf-8"?>
<!-- Generator: Adobe Illustrator 22.1.0, SVG Export Plug-In . SVG Version: 6.00 Build 0)  -->
<svg version="1.1" id="Layer_1" xmlns="http://www.w3.org/2000/svg" xmlns:xlink="http://www.w3.org/1999/xlink" x="0px" y="0px"
	 viewBox="0 0 256 256" style="enable-background:new 0 0 256 256;" xml:space="preserve">
<style type="text/css">
	.st0{fill:#FAAF40;}
	.st1{fill:#231F20;}
	.st2{fill:#B2AF93;}
	.st3{fill:#E7E2BE;}
	.st4{fill:#404041;}
	.st5{fill:#F9F4CD;}
	.st6{fill:#771D19;}
</style>
<g>
	<g>
		<g>
			<path class="st0" d="M64.82,158.27c-0.13,0.25-3.29-5.22-2.97-5.85C62.18,151.79,64.95,158.03,64.82,158.27z"/>
			<path class="st0" d="M65.14,157.06c-0.13,0.25-3.29-5.22-2.97-5.85C62.51,150.58,65.27,156.82,65.14,157.06z"/>
			<path class="st0" d="M65.7,155.94c-0.13,0.25-3.29-5.22-2.97-5.85C63.06,149.46,65.83,155.7,65.7,155.94z"/>
			<path class="st0" d="M66.03,154.73c-0.13,0.25-3.29-5.22-2.97-5.85C63.39,148.25,66.16,154.49,66.03,154.73z"/>
			<path class="st0" d="M67.53,154.72c-0.13,0.25-3.29-5.22-2.97-5.85S67.66,154.47,67.53,154.72z"/>
			<path class="st0" d="M67.85,153.51c-0.13,0.25-3.29-5.22-2.97-5.85C65.22,147.03,67.98,153.26,67.85,153.51z"/>
			<path class="st0" d="M68.41,152.39c-0.13,0.25-3.29-5.22-2.97-5.85C65.77,145.91,68.54,152.14,68.41,152.39z"/>
			<path class="st0" d="M68.74,151.18c-0.13,0.25-3.29-5.22-2.97-5.85S68.86,150.93,68.74,151.18z"/>
			<path class="st0" d="M69.76,150.24c-0.13,0.25-3.29-5.22-2.97-5.85C67.12,143.75,69.89,149.99,69.76,150.24z"/>
			<path class="st0" d="M70.08,149.03c-0.13,0.25-3.29-5.22-2.97-5.85C67.44,142.54,70.21,148.78,70.08,149.03z"/>
			<path class="st0" d="M70.64,147.91c-0.13,0.25-3.29-5.22-2.97-5.85S70.77,147.66,70.64,147.91z"/>
			<path class="st0" d="M70.97,146.7c-0.13,0.25-3.29-5.22-2.97-5.85C68.33,140.21,71.09,146.45,70.97,146.7z"/>
			<path class="st0" d="M71.99,145.75c-0.13,0.25-3.29-5.22-2.97-5.85S72.11,145.51,71.99,145.75z"/>
			<path class="st0" d="M72.31,144.54c-0.13,0.25-3.29-5.22-2.97-5.85C69.67,138.06,72.44,144.3,72.31,144.54z"/>
			<path class="st0" d="M72.87,143.42c-0.13,0.25-3.29-5.22-2.97-5.85C70.23,136.94,73,143.18,72.87,143.42z"/>
			<path class="st0" d="M73.19,142.21c-0.13,0.25-3.29-5.22-2.97-5.85S73.32,141.97,73.19,142.21z"/>
			<path class="st0" d="M73.6,141.03c-0.13,0.25-3.29-5.22-2.97-5.85C70.96,134.55,73.73,140.79,73.6,141.03z"/>
			<path class="st0" d="M73.92,139.82c-0.13,0.25-3.29-5.22-2.97-5.85S74.05,139.58,73.92,139.82z"/>
			<path class="st0" d="M74.48,138.7c-0.13,0.25-3.29-5.22-2.97-5.85C71.84,132.22,74.61,138.46,74.48,138.7z"/>
			<path class="st0" d="M74.81,137.49c-0.13,0.25-3.29-5.22-2.97-5.85C72.17,131.01,74.94,137.25,74.81,137.49z"/>
			<path class="st0" d="M75.2,135.98c-0.13,0.25-3.29-5.22-2.97-5.85C72.56,129.5,75.33,135.73,75.2,135.98z"/>
			<path class="st0" d="M75.53,134.77c-0.13,0.25-3.29-5.22-2.97-5.85C72.89,128.29,75.65,134.52,75.53,134.77z"/>
			<path class="st0" d="M76.08,133.65c-0.13,0.25-3.29-5.22-2.97-5.85C73.45,127.17,76.21,133.4,76.08,133.65z"/>
			<path class="st0" d="M76.41,132.44c-0.13,0.25-3.29-5.22-2.97-5.85C73.77,125.96,76.54,132.19,76.41,132.44z"/>
		</g>
		<g>
			<path class="st0" d="M82.78,208.97c-0.03,0.28-5.86-3.7-5.79-4.41S82.81,208.69,82.78,208.97z"/>
			<path class="st0" d="M82.59,207.72c-0.03,0.28-5.86-3.7-5.79-4.41C76.87,202.61,82.62,207.45,82.59,207.72z"/>
			<path class="st0" d="M82.68,206.48c-0.03,0.28-5.86-3.7-5.79-4.41C76.96,201.36,82.71,206.2,82.68,206.48z"/>
			<path class="st0" d="M82.49,205.23c-0.03,0.28-5.86-3.7-5.79-4.41S82.52,204.95,82.49,205.23z"/>
			<path class="st0" d="M84.09,204.68c-0.03,0.28-5.86-3.7-5.79-4.41S84.12,204.4,84.09,204.68z"/>
			<path class="st0" d="M83.9,203.43c-0.03,0.28-5.86-3.7-5.79-4.41C78.18,198.31,83.93,203.15,83.9,203.43z"/>
			<path class="st0" d="M84,202.18c-0.03,0.28-5.86-3.7-5.79-4.41C78.27,197.06,84.02,201.9,84,202.18z"/>
			<path class="st0" d="M83.81,200.93c-0.03,0.28-5.86-3.7-5.79-4.41C78.08,195.81,83.83,200.65,83.81,200.93z"/>
			<path class="st0" d="M84.48,199.68c-0.03,0.28-5.86-3.7-5.79-4.41S84.5,199.41,84.48,199.68z"/>
			<path class="st0" d="M84.29,198.44c-0.03,0.28-5.86-3.7-5.79-4.41S84.31,198.16,84.29,198.44z"/>
			<path class="st0" d="M84.38,197.19c-0.03,0.28-5.86-3.7-5.79-4.41C78.66,192.07,84.41,196.91,84.38,197.19z"/>
			<path class="st0" d="M84.19,195.94c-0.03,0.28-5.86-3.7-5.79-4.41C78.47,190.82,84.22,195.66,84.19,195.94z"/>
			<path class="st0" d="M84.86,194.69c-0.03,0.28-5.86-3.7-5.79-4.41C79.14,189.57,84.89,194.41,84.86,194.69z"/>
			<path class="st0" d="M84.67,193.44c-0.03,0.28-5.86-3.7-5.79-4.41S84.7,193.17,84.67,193.44z"/>
			<path class="st0" d="M84.77,192.19c-0.03,0.28-5.86-3.7-5.79-4.41C79.04,187.08,84.79,191.92,84.77,192.19z"/>
			<path class="st0" d="M84.57,190.95c-0.03,0.28-5.86-3.7-5.79-4.41C78.85,185.83,84.6,190.67,84.57,190.95z"/>
			<path class="st0" d="M84.48,189.7c-0.03,0.28-5.86-3.7-5.79-4.41S84.5,189.42,84.48,189.7z"/>
			<path class="st0" d="M84.29,188.45c-0.03,0.28-5.86-3.7-5.79-4.41C78.56,183.33,84.31,188.17,84.29,188.45z"/>
			<path class="st0" d="M84.38,187.2c-0.03,0.28-5.86-3.7-5.79-4.41C78.66,182.09,84.41,186.93,84.38,187.2z"/>
			<path class="st0" d="M84.19,185.95c-0.03,0.28-5.86-3.7-5.79-4.41C78.47,180.84,84.22,185.68,84.19,185.95z"/>
			<path class="st0" d="M83.93,184.4c-0.03,0.28-5.86-3.7-5.79-4.41S83.96,184.12,83.93,184.4z"/>
			<path class="st0" d="M83.74,183.15c-0.03,0.28-5.86-3.7-5.79-4.41S83.77,182.87,83.74,183.15z"/>
			<path class="st0" d="M83.84,181.9c-0.03,0.28-5.86-3.7-5.79-4.41C78.11,176.78,83.86,181.62,83.84,181.9z"/>
			<path class="st0" d="M83.65,180.65c-0.03,0.28-5.86-3.7-5.79-4.41C77.92,175.54,83.67,180.38,83.65,180.65z"/>
		</g>
		<g>
			<path class="st1" d="M81.8,41.26c0,0-1.26,1.49-0.72,3.29c0.54,1.8,3.09,10.83,3.09,10.83l3.66,0.79L84.9,41.96L81.8,41.26z"/>
			<path class="st1" d="M80.39,33c-0.38,0.95,0.08,7.24,2.15,11.18l1.93-0.07c0,0-0.72-4.6-0.13-6.45c0.59-1.84-0.99-4.23-0.99-4.23
				L80.39,33z"/>
			<path class="st1" d="M80.69,20.57c-1.28,2.77-1.05,6.69-0.22,9.32s0.74,4.03,0.74,4.03l2.38,0.2c0,0-0.99-6.31,0.8-8.66
				c-0.52-1.99-0.84-3-0.61-3.96L80.69,20.57z"/>
			<path class="st1" d="M88.69,5.34c-2.78,0.67-5.07,3.13-6.08,6.69c-1.01,3.56-1.45,9.32-1.45,9.32l1.94,0.23
				c0,0,0.61-6.8,3.2-9.06s4.44-2.41,4.9-3.26C91.76,8.22,89.92,5.04,88.69,5.34z"/>
			<path class="st1" d="M89,5.32c0.83-1.2,3.17-2.81,5.52-2.18s4.52,3.82,5.37,7.42c-1.07-1.8-3.3-4.68-5.5-4.81
				c-1.46-0.09-3.11,1.69-3.77,1.97C89.95,8.01,88.43,6.16,89,5.32z"/>
			<path class="st1" d="M87.8,5.6c0.57-1.02,2.26-2.32,4.09-1.64c1.82,0.68,3.63,3.61,4.47,6.84c-0.9-1.65-2.75-4.3-4.44-4.54
				c-1.12-0.16-2.27,1.33-2.76,1.55S87.41,6.31,87.8,5.6z"/>
			<path class="st1" d="M90.32,8.44c1.79,0.44,5.38,2.2,6.85,2.32C95.57,9.03,92.27,8.13,90.32,8.44z"/>
			<path class="st1" d="M97.74,101.59c-1.62-3.01-10.14-8.21-12.56-8.4c-1.69-0.13-4.75,3.69-4.47,4.58
				c0.29,0.9,6.98,11.83,9.88,13.19C91.98,111.62,99.17,104.25,97.74,101.59z"/>
			<path class="st1" d="M79.23,50.31c-0.65,0.06,0.1,3.14,0.12,4.01c0.28,13.05-3.06,27.38-3.06,29.57c0,2.41,1.89,12.7,5.46,13.33
				s5.73-5.73,6.15-9.3c0.42-3.57-1.89-22.88,0.57-29.01c0.68-1.7,2.55-1.4,2.64-1.86c0.09-0.46-2.83-0.52-4.16-1.82
				C84.83,53.17,81.26,50.12,79.23,50.31z"/>
		</g>
		<polygon class="st2" points="128,135.88 114.29,135.88 128,159.67 		"/>
		<g>
			<path class="st1" d="M75.57,171.3c-1.02,1.12-0.58,15.98-0.85,23.92c-0.38,10.9-4.63,16.83-4.81,17.4
				c2.15-1.31,5.05,0.29,9.53,5.45c0.12-1.02-0.4-1.89,0.3-3.86c0.24-0.66,5.5,3.67,5.51,2.89c0.01-0.57-5.35-7.12-5.33-7.72
				c0.38-7.67,2.07-17.67,1.78-21.75c-0.24-3.49,0.16-12.24-2.81-16.17C77.71,169.88,76.6,170.16,75.57,171.3z"/>
			<path class="st1" d="M86.69,161.43c0,0-9.86,2.77-10.82,5.67c-0.96,2.9,0.6,5.64,2.68,6.1s10.66-2.18,10.66-2.18L86.69,161.43z"
				/>
			<path class="st1" d="M65.19,221.09c0,0,1.79-2.14,3.09-3.26c1.3-1.12,3.45-2.4,3.45-2.4l1.86,1.74l-6.03,6.38L65.19,221.09z"/>
			<path class="st1" d="M59.26,226.7c0.23-0.71,4.9-3.9,7.86-4.96l1.03,1.03c0,0-2.53,2.11-3.05,3.4c-0.53,1.29-3.47,3.52-3.47,3.52
				L59.26,226.7z"/>
			<path class="st1" d="M54.7,231.46c1.03-2.2,3.42-3.8,5.32-4.38c1.9-0.58,2.68-1.28,2.68-1.28l1.19,1.66c0,0-4.95,3.72-5.51,6.1
				c-1.39,0.52-2.26,0.69-2.72,1.29L54.7,231.46z"/>
			<path class="st1" d="M45.94,244.72c-0.71-1.79-0.11-4.03,1.7-6s9.07-7.25,9.07-7.25l0.93,0.97c0,0-6.74,6.19-7.46,8.39
				c-0.49,1.49-0.45,3.95-1.55,4.97C48.04,246.34,46.25,245.51,45.94,244.72z"/>
			<path class="st1" d="M45.67,245.17c-0.85,0.68-1.93,2.5-1.34,4.22c0.59,1.72,3.08,3.16,5.8,3.61c-1.4-0.7-3.65-2.21-3.87-3.84
				c-0.14-1.08,1.1-2.4,1.27-2.91C47.72,245.74,46.26,244.7,45.67,245.17z"/>
			<path class="st1" d="M45.82,244.27c-0.73,0.47-1.61,1.8-1.01,3.12c0.6,1.32,2.88,2.52,5.32,2.97c-1.27-0.59-3.34-1.82-3.61-3.06
				c-0.17-0.82,0.87-1.76,1.01-2.14C47.66,244.78,46.32,243.94,45.82,244.27z"/>
			<path class="st1" d="M47.92,245.21c0.42,1.31,1.92,3.88,2.08,4.97C48.64,249.08,47.79,246.67,47.92,245.21z"/>
			<path class="st1" d="M73.46,209.89c-0.09,1.21-3.03,6.74-3.69,7.35c1.5,0.21,3.2,0.51,3.5,0.93c0.38-2.01,1.22-4.7,1.73-5.64
				s0.77-1.44,1.26-2.03L73.46,209.89z"/>
		</g>
		<g>
			<path class="st1" d="M92.77,114.69c-3.28-0.55-13.08,0.36-14.66,2.11c-1.11,1.22,0.01,5.85,0.87,6.17s13.51,1.48,14.98,1.2
				C95.43,123.88,95.67,115.18,92.77,114.69z"/>
			<path class="st1" d="M50.87,171.54c0,0,0.17-1.36,0.83-2.02c0.66-0.66,3.24-3.08,3.24-3.08l1.95,0.68c0,0-2.01,2.31-2.35,2.92
				c-0.35,0.61-1.09,2.02-1.09,2.02L50.87,171.54z"/>
			<path class="st1" d="M47.25,176.21c0.06-0.58,1.98-3.59,4.07-5l0.94,0.55c0,0-1.59,2.1-1.79,3.18s-1.63,1.84-1.63,1.84
				L47.25,176.21z"/>
			<path class="st1" d="M43.73,182.49c0.1-1.73,1.62-3.62,2.73-4.71c1.12-1.09,1.45-1.81,1.45-1.81l1.24,0.54
				c0,0-2.18,2.88-1.92,4.54c-0.79,0.85-1.22,1.27-1.37,1.81L43.73,182.49z"/>
			<path class="st1" d="M42.45,199.97c-1.71-1.38-2.48-3.85-2.01-6.65c0.48-2.81,3.96-11.52,3.96-11.52l1.42,0.48
				c0,0-3.71,9.5-2.66,11.92c1.05,2.42,2.28,3.14,2.32,3.89C45.53,198.99,43.2,200.58,42.45,199.97z"/>
			<path class="st1" d="M43.82,200.5c0.25,1.09,1.47,2.91,3.33,3.12c1.86,0.21,4.31-1.46,5.93-3.79c-1.27,0.99-3.67,2.41-5.29,1.88
				c-1.07-0.35-1.74-2.09-2.14-2.48C45.26,198.85,43.65,199.74,43.82,200.5z"/>
			<path class="st1" d="M43.05,199.96c0.12,0.89,0.96,2.3,2.46,2.32s3.62-1.55,5.12-3.62c-1.11,0.92-3.18,2.3-4.45,1.99
				c-0.84-0.2-1.25-1.59-1.54-1.89S42.97,199.35,43.05,199.96z"/>
			<path class="st1" d="M44.55,198.27c1.4,0.19,4.46-0.06,5.55,0.27C48.46,199.33,45.85,199.05,44.55,198.27z"/>
			<path class="st1" d="M58.97,159.29c-0.18,1.05-4.29,6.75-4.95,7.25c1.37,0.28,2.92,0.65,3.17,1.04c0.51-1.74,1.51-4.04,2.05-4.83
				s1.78-2.26,2.28-2.74L58.97,159.29z"/>
			<path class="st1" d="M76.38,119.46c-1.71,0.42-12.58,19.63-14.98,28.02c-2.4,8.39-6.91,14.8-8.49,15.99
				c2.88,0.05,6.14-1.08,7.26,3.75c0.79-5.89,2.93-8.64,4.47-12.29c1.54-3.66,14.38-30.8,14.08-32.87
				C78.41,119.99,78.11,119.03,76.38,119.46z"/>
		</g>
		<path class="st1" d="M118.85,67.19c-1.19-1.06-3.66-1.98-6.27-1.63c0,0-1.02,1.12-0.65,1.8s4.99,0.03,5.91,1L118.85,67.19z"/>
		<path class="st1" d="M108.64,65.33c-1.27-0.01-2.92-0.37-1.37-1.38c0.62-0.4,1.94-1.16,2.9-2.41c1.44-1.9,2.43-4.49,1.92-5.19
			c-0.84-1.17-5.08,2.6-7.01,5.46c-0.62,0.92-2.53,5.29,3.56,4.55L108.64,65.33z"/>
		<path class="st1" d="M109.88,65.09c-0.38-0.3-1.49,0.09-1.49,0.71s0.86,1,1.4,0.83C110.33,66.46,110.26,65.39,109.88,65.09z"/>
		<path class="st1" d="M111.21,65.24c-0.33-0.31-1.28,0.05-1.26,0.69s0.77,1.03,1.23,0.87C111.64,66.64,111.54,65.55,111.21,65.24z"
			/>
		<path class="st1" d="M112.58,65.56c-0.27-0.36-1.27-0.16-1.37,0.47c-0.09,0.63,0.57,1.14,1.06,1.06
			C112.75,67.01,112.85,65.93,112.58,65.56z"/>
		<path class="st3" d="M128,224.85c-5.64,2.48-17.75-0.41-23.33-5.35c-9.68-8.59-15.07-28.8-19.06-46.3
			c-5.32-23.34-8.38-35.8-1.69-47.51c0,0,5.54-2.85,10.04-1.53c9.9,2.92,20.06,7.77,21.11,8.67c3.22,2.77,12.93,22.52,12.93,22.52
			V224.85z"/>
		<path class="st4" d="M128.13,224.94c-2.6,1.12-5.19,1.07-7.8,0.84c-2.59-0.26-5.14-0.83-7.6-1.7c-2.45-0.86-4.83-1.98-6.96-3.5
			c-2.1-1.57-3.83-3.56-5.34-5.67c-3.04-4.23-5.2-9-7.07-13.83c-1.85-4.84-3.37-9.81-4.72-14.81c-1.35-5-2.52-10.05-3.67-15.1
			c-1.14-5.05-2.31-10.1-3.29-15.18c-0.96-5.08-1.8-10.23-1.74-15.44c0.06-2.59,0.25-5.21,0.93-7.73c0.64-2.52,1.63-4.95,2.9-7.22
			l0,0l0.02-0.04l0.05-0.02c2.24-1.1,4.65-1.87,7.18-1.99c1.25-0.07,2.57,0.14,3.74,0.52c1.19,0.34,2.37,0.71,3.55,1.09
			c4.71,1.54,9.33,3.33,13.85,5.41c0.56,0.26,1.13,0.53,1.69,0.81c0.57,0.32,1.1,0.51,1.72,1.03c1.04,0.97,1.67,2,2.41,3.03
			c1.39,2.08,2.65,4.22,3.89,6.37c2.46,4.3,4.79,8.66,7.07,13.07l0.01,0.01l0.11,0.22l0,0.25c-0.04,11.68-0.22,23.34-0.34,34.96
			L128.13,224.94z M127.87,224.76l-0.57-34.87c-0.12-11.55-0.3-23.05-0.34-34.54l0.11,0.46l-0.01-0.01
			c-2.12-4.44-4.32-8.86-6.63-13.2c-1.16-2.16-2.34-4.32-3.64-6.39c-0.66-0.99-1.33-2.09-2.09-2.83c-0.31-0.3-0.93-0.61-1.43-0.9
			c-0.54-0.29-1.08-0.57-1.62-0.84c-4.39-2.18-8.94-4.1-13.57-5.77c-1.16-0.42-2.32-0.82-3.49-1.19c-1.17-0.41-2.31-0.62-3.54-0.6
			c-2.42,0.04-4.83,0.73-7.05,1.74l0.07-0.06l0,0c-1.25,2.25-2.23,4.65-2.87,7.14c-0.67,2.49-0.86,5.08-0.92,7.65
			c-0.05,5.17,0.78,10.3,1.74,15.37c0.98,5.08,2.14,10.12,3.29,15.17c1.15,5.05,2.32,10.09,3.67,15.09c1.34,5,2.86,9.95,4.71,14.78
			c1.86,4.81,4.02,9.56,7.03,13.75c1.49,2.09,3.21,4.06,5.27,5.59c2.09,1.49,4.45,2.6,6.87,3.46c2.43,0.85,4.96,1.42,7.52,1.68
			c1.28,0.15,2.57,0.14,3.85,0.08C125.48,225.44,126.79,225.15,127.87,224.76z"/>
		<path class="st3" d="M128,45.18c-3.48,0-7.5-5.81-7.89-8.32c-0.39-2.52-7.45-2.42-6.68,1.94s7.93,7.74,9.19,12.48
			s-1.16,8.52-2.52,7.55c-1.35-0.97-2.13-2.03-3.19-1.35c-1.06,0.68-7.64,11.03-1.64,18.87H128V45.18z"/>
		<path class="st4" d="M125.3,44.18c-1.92-1.27-4.56-4.51-5.24-7.36c-0.59-2.48-7.45-2.42-6.68,1.94c0.77,4.35,7.93,7.74,9.19,12.48
			c0,0,1.97-1.46,2.45-3.22C125.65,45.68,125.3,44.18,125.3,44.18z"/>
		<path class="st5" d="M114.15,77.44c-4.62,2.73-24.71,11.53-24.71,19.77s3,26.51,4.94,27.86c1.95,1.35,13.03,3.59,17.07,6.74
			c4.04,3.15,5.99,6.59,8.54,6.74s8.01,0,8.01,0V74.29C128,74.29,117.45,75.49,114.15,77.44z"/>
		<path class="st4" d="M128.02,74.5c-2.32,0.3-4.64,0.68-6.94,1.15c-2.27,0.5-4.63,0.99-6.62,2.03c-4.12,2.31-8.35,4.34-12.35,6.8
			c-2,1.21-3.96,2.5-5.8,3.92c-1.82,1.43-3.59,2.98-4.91,4.84c-0.65,0.93-1.17,1.94-1.38,3c-0.19,1.02-0.07,2.25-0.03,3.4
			c0.13,2.33,0.37,4.66,0.66,6.99c0.62,4.64,1.33,9.29,2.4,13.83c0.28,1.13,0.59,2.26,1.02,3.3c0.11,0.25,0.23,0.51,0.36,0.71
			c0.07,0.11,0.13,0.18,0.18,0.23l0.33,0.19c0.48,0.25,1.03,0.45,1.57,0.65c2.2,0.77,4.47,1.43,6.7,2.19
			c2.23,0.76,4.46,1.58,6.57,2.69c2.14,1.15,3.81,2.88,5.46,4.55c0.82,0.84,1.63,1.7,2.53,2.42c0.46,0.35,0.94,0.67,1.47,0.84
			c0.52,0.19,1.11,0.17,1.7,0.19c2.34,0.05,4.7,0.03,7.04-0.08l0.01,0.41c-2.36,0-4.71,0.06-7.06,0c-0.58-0.03-1.19,0-1.79-0.21
			c-0.58-0.19-1.11-0.51-1.59-0.87c-0.95-0.73-1.78-1.58-2.62-2.4c-1.68-1.62-3.38-3.29-5.43-4.34c-2.08-1.03-4.3-1.8-6.53-2.51
			c-2.24-0.71-4.49-1.34-6.75-2.09c-0.56-0.2-1.12-0.39-1.7-0.68c-0.15-0.08-0.29-0.15-0.44-0.25c-0.17-0.14-0.31-0.29-0.39-0.43
			c-0.2-0.29-0.33-0.57-0.46-0.85c-0.49-1.13-0.81-2.27-1.11-3.42c-1.18-4.59-1.94-9.26-2.49-13.94c-0.28-2.34-0.5-4.7-0.62-7.06
			c-0.02-1.19-0.17-2.33,0.07-3.63c0.26-1.25,0.85-2.36,1.56-3.35c1.42-1.98,3.25-3.55,5.13-5.01c1.89-1.43,3.88-2.72,5.91-3.94
			c4.05-2.44,8.31-4.49,12.43-6.71c2.21-1.09,4.55-1.49,6.86-1.96c2.32-0.42,4.65-0.76,7-1.01L128.02,74.5z"/>
		<ellipse class="st2" cx="115.33" cy="73.87" rx="3.53" ry="3.39"/>
		<path class="st1" d="M116.67,73.87c0,1.87-0.18,3.39-1.85,3.39c-1.67,0-3.02-1.52-3.02-3.39c0-1.87,1.35-3.39,3.02-3.39
			C116.48,70.48,116.67,71.99,116.67,73.87z"/>
		<path class="st1" d="M128,75.62c0,0-3.39,12.1-4.25,28.27c-0.86,16.17,1.74,33.16,1.31,34.02c-0.43,0.86-13.08-22.81-12.09-32.44
			C113.95,95.82,124.9,77.87,128,75.62z"/>
		<path class="st1" d="M119.26,79.85c-2.72,3.92-10.09,17.64-10.61,24.39c-0.61,7.94,2.94,24.28,2.68,26.04
			c-3.77-2.35-11.78-16.27-11.03-27.73S121.18,77.07,119.26,79.85z"/>
		<path class="st1" d="M110.8,82.39c-2.47,2.02-8.92,8.03-11.73,11.15C97.82,86.78,105.13,84.93,110.8,82.39z"/>
		<path class="st6" d="M125.66,165.21c-0.33,25.84,2.44,58.72,0.44,59.05c-7.6,1.27-17.46-3.19-19.2-4.44
			c-6.6-4.73-15.09-21.61-19.03-40.41c-2.43-11.62-6.64-27.5-6.61-37.03c0.02-6.13,1.15-12.49,3.5-14.72
			c2.11-2,13.75,2.22,16.31,3.26c7,2.86,17.69,12.75,21.36,18.75C126.57,156.41,125.73,159.5,125.66,165.21z"/>
	</g>
	<g>
		<g>
			<path class="st0" d="M191.18,158.27c0.13,0.25,3.29-5.22,2.97-5.85C193.82,151.79,191.05,158.03,191.18,158.27z"/>
			<path class="st0" d="M190.86,157.06c0.13,0.25,3.29-5.22,2.97-5.85C193.49,150.58,190.73,156.82,190.86,157.06z"/>
			<path class="st0" d="M190.3,155.94c0.13,0.25,3.29-5.22,2.97-5.85C192.94,149.46,190.17,155.7,190.3,155.94z"/>
			<path class="st0" d="M189.97,154.73c0.13,0.25,3.29-5.22,2.97-5.85C192.61,148.25,189.84,154.49,189.97,154.73z"/>
			<path class="st0" d="M188.47,154.72c0.13,0.25,3.29-5.22,2.97-5.85S188.34,154.47,188.47,154.72z"/>
			<path class="st0" d="M188.15,153.51c0.13,0.25,3.29-5.22,2.97-5.85S188.02,153.26,188.15,153.51z"/>
			<path class="st0" d="M187.59,152.39c0.13,0.25,3.29-5.22,2.97-5.85C190.23,145.91,187.46,152.14,187.59,152.39z"/>
			<path class="st0" d="M187.26,151.18c0.13,0.25,3.29-5.22,2.97-5.85C189.9,144.7,187.14,150.93,187.26,151.18z"/>
			<path class="st0" d="M186.24,150.24c0.13,0.25,3.29-5.22,2.97-5.85C188.88,143.75,186.11,149.99,186.24,150.24z"/>
			<path class="st0" d="M185.92,149.03c0.13,0.25,3.29-5.22,2.97-5.85C188.56,142.54,185.79,148.78,185.92,149.03z"/>
			<path class="st0" d="M185.36,147.91c0.13,0.25,3.29-5.22,2.97-5.85C188,141.42,185.23,147.66,185.36,147.91z"/>
			<path class="st0" d="M185.03,146.7c0.13,0.25,3.29-5.22,2.97-5.85C187.67,140.21,184.91,146.45,185.03,146.7z"/>
			<path class="st0" d="M184.01,145.75c0.13,0.25,3.29-5.22,2.97-5.85C186.65,139.27,183.89,145.51,184.01,145.75z"/>
			<path class="st0" d="M183.69,144.54c0.13,0.25,3.29-5.22,2.97-5.85C186.33,138.06,183.56,144.3,183.69,144.54z"/>
			<path class="st0" d="M183.13,143.42c0.13,0.25,3.29-5.22,2.97-5.85C185.77,136.94,183,143.18,183.13,143.42z"/>
			<path class="st0" d="M182.81,142.21c0.13,0.25,3.29-5.22,2.97-5.85S182.68,141.97,182.81,142.21z"/>
			<path class="st0" d="M182.4,141.03c0.13,0.25,3.29-5.22,2.97-5.85C185.04,134.55,182.27,140.79,182.4,141.03z"/>
			<path class="st0" d="M182.08,139.82c0.13,0.25,3.29-5.22,2.97-5.85S181.95,139.58,182.08,139.82z"/>
			<path class="st0" d="M181.52,138.7c0.13,0.25,3.29-5.22,2.97-5.85C184.16,132.22,181.39,138.46,181.52,138.7z"/>
			<path class="st0" d="M181.19,137.49c0.13,0.25,3.29-5.22,2.97-5.85C183.83,131.01,181.06,137.25,181.19,137.49z"/>
			<path class="st0" d="M180.8,135.98c0.13,0.25,3.29-5.22,2.97-5.85C183.44,129.5,180.67,135.73,180.8,135.98z"/>
			<path class="st0" d="M180.47,134.77c0.13,0.25,3.29-5.22,2.97-5.85C183.11,128.29,180.35,134.52,180.47,134.77z"/>
			<path class="st0" d="M179.92,133.65c0.13,0.25,3.29-5.22,2.97-5.85C182.55,127.17,179.79,133.4,179.92,133.65z"/>
			<path class="st0" d="M179.59,132.44c0.13,0.25,3.29-5.22,2.97-5.85C182.23,125.96,179.46,132.19,179.59,132.44z"/>
		</g>
		<g>
			<path class="st0" d="M173.22,208.97c0.03,0.28,5.86-3.7,5.79-4.41S173.19,208.69,173.22,208.97z"/>
			<path class="st0" d="M173.41,207.72c0.03,0.28,5.86-3.7,5.79-4.41C179.13,202.61,173.38,207.45,173.41,207.72z"/>
			<path class="st0" d="M173.32,206.48c0.03,0.28,5.86-3.7,5.79-4.41C179.04,201.36,173.29,206.2,173.32,206.48z"/>
			<path class="st0" d="M173.51,205.23c0.03,0.28,5.86-3.7,5.79-4.41C179.23,200.11,173.48,204.95,173.51,205.23z"/>
			<path class="st0" d="M171.91,204.68c0.03,0.28,5.86-3.7,5.79-4.41S171.88,204.4,171.91,204.68z"/>
			<path class="st0" d="M172.1,203.43c0.03,0.28,5.86-3.7,5.79-4.41S172.07,203.15,172.1,203.43z"/>
			<path class="st0" d="M172,202.18c0.03,0.28,5.86-3.7,5.79-4.41C177.73,197.06,171.98,201.9,172,202.18z"/>
			<path class="st0" d="M172.19,200.93c0.03,0.28,5.86-3.7,5.79-4.41C177.92,195.81,172.17,200.65,172.19,200.93z"/>
			<path class="st0" d="M171.52,199.68c0.03,0.28,5.86-3.7,5.79-4.41C177.25,194.57,171.5,199.41,171.52,199.68z"/>
			<path class="st0" d="M171.71,198.44c0.03,0.28,5.86-3.7,5.79-4.41S171.69,198.16,171.71,198.44z"/>
			<path class="st0" d="M171.62,197.19c0.03,0.28,5.86-3.7,5.79-4.41C177.34,192.07,171.59,196.91,171.62,197.19z"/>
			<path class="st0" d="M171.81,195.94c0.03,0.28,5.86-3.7,5.79-4.41C177.53,190.82,171.78,195.66,171.81,195.94z"/>
			<path class="st0" d="M171.14,194.69c0.03,0.28,5.86-3.7,5.79-4.41S171.11,194.41,171.14,194.69z"/>
			<path class="st0" d="M171.33,193.44c0.03,0.28,5.86-3.7,5.79-4.41S171.3,193.17,171.33,193.44z"/>
			<path class="st0" d="M171.23,192.19c0.03,0.28,5.86-3.7,5.79-4.41C176.96,187.08,171.21,191.92,171.23,192.19z"/>
			<path class="st0" d="M171.43,190.95c0.03,0.28,5.86-3.7,5.79-4.41C177.15,185.83,171.4,190.67,171.43,190.95z"/>
			<path class="st0" d="M171.52,189.7c0.03,0.28,5.86-3.7,5.79-4.41C177.25,184.58,171.5,189.42,171.52,189.7z"/>
			<path class="st0" d="M171.71,188.45c0.03,0.28,5.86-3.7,5.79-4.41C177.44,183.33,171.69,188.17,171.71,188.45z"/>
			<path class="st0" d="M171.62,187.2c0.03,0.28,5.86-3.7,5.79-4.41C177.34,182.09,171.59,186.93,171.62,187.2z"/>
			<path class="st0" d="M171.81,185.95c0.03,0.28,5.86-3.7,5.79-4.41C177.53,180.84,171.78,185.68,171.81,185.95z"/>
			<path class="st0" d="M172.07,184.4c0.03,0.28,5.86-3.7,5.79-4.41S172.04,184.12,172.07,184.4z"/>
			<path class="st0" d="M172.26,183.15c0.03,0.28,5.86-3.7,5.79-4.41C177.98,178.03,172.23,182.87,172.26,183.15z"/>
			<path class="st0" d="M172.16,181.9c0.03,0.28,5.86-3.7,5.79-4.41C177.89,176.78,172.14,181.62,172.16,181.9z"/>
			<path class="st0" d="M172.35,180.65c0.03,0.28,5.86-3.7,5.79-4.41C178.08,175.54,172.33,180.38,172.35,180.65z"/>
		</g>
		<g>
			<path class="st1" d="M174.2,41.26c0,0,1.26,1.49,0.72,3.29c-0.54,1.8-3.09,10.83-3.09,10.83l-3.66,0.79l2.94-14.21L174.2,41.26z"
				/>
			<path class="st1" d="M175.61,33c0.38,0.95-0.08,7.24-2.15,11.18l-1.93-0.07c0,0,0.72-4.6,0.13-6.45
				c-0.59-1.84,0.99-4.23,0.99-4.23L175.61,33z"/>
			<path class="st1" d="M175.31,20.57c1.28,2.77,1.05,6.69,0.22,9.32s-0.74,4.03-0.74,4.03l-2.38,0.2c0,0,0.99-6.31-0.8-8.66
				c0.52-1.99,0.84-3,0.61-3.96L175.31,20.57z"/>
			<path class="st1" d="M167.31,5.34c2.78,0.67,5.07,3.13,6.08,6.69c1.01,3.56,1.45,9.32,1.45,9.32l-1.94,0.23
				c0,0-0.61-6.8-3.2-9.06s-4.44-2.41-4.9-3.26C164.24,8.22,166.08,5.04,167.31,5.34z"/>
			<path class="st1" d="M167,5.32c-0.83-1.2-3.17-2.81-5.52-2.18s-4.52,3.82-5.37,7.42c1.07-1.8,3.3-4.68,5.5-4.81
				c1.46-0.09,3.11,1.69,3.77,1.97C166.05,8.01,167.57,6.16,167,5.32z"/>
			<path class="st1" d="M168.2,5.6c-0.57-1.02-2.26-2.32-4.09-1.64s-3.63,3.61-4.47,6.84c0.9-1.65,2.75-4.3,4.44-4.54
				c1.12-0.16,2.27,1.33,2.76,1.55C167.33,8.02,168.59,6.31,168.2,5.6z"/>
			<path class="st1" d="M165.68,8.44c-1.79,0.44-5.38,2.2-6.85,2.32C160.43,9.03,163.73,8.13,165.68,8.44z"/>
			<path class="st1" d="M158.26,101.59c1.62-3.01,10.14-8.21,12.56-8.4c1.69-0.13,4.75,3.69,4.47,4.58
				c-0.29,0.9-6.98,11.83-9.88,13.19C164.02,111.62,156.83,104.25,158.26,101.59z"/>
			<path class="st1" d="M176.77,50.31c0.65,0.06-0.1,3.14-0.12,4.01c-0.28,13.05,3.06,27.38,3.06,29.57c0,2.41-1.89,12.7-5.46,13.33
				c-3.57,0.63-5.73-5.73-6.15-9.3c-0.42-3.57,1.89-22.88-0.57-29.01c-0.68-1.7-2.55-1.4-2.64-1.86c-0.09-0.46,2.83-0.52,4.16-1.82
				C171.17,53.17,174.74,50.12,176.77,50.31z"/>
		</g>
		<polygon class="st2" points="128,135.88 141.71,135.88 128,159.67 		"/>
		<g>
			<path class="st1" d="M180.43,171.3c1.02,1.12,0.58,15.98,0.85,23.92c0.38,10.9,4.63,16.83,4.81,17.4
				c-2.15-1.31-5.05,0.29-9.53,5.45c-0.12-1.02,0.4-1.89-0.3-3.86c-0.24-0.66-5.5,3.67-5.51,2.89c-0.01-0.57,5.35-7.12,5.33-7.72
				c-0.38-7.67-2.07-17.67-1.78-21.75c0.24-3.49-0.16-12.24,2.81-16.17C178.29,169.88,179.4,170.16,180.43,171.3z"/>
			<path class="st1" d="M169.31,161.43c0,0,9.86,2.77,10.82,5.67c0.96,2.9-0.6,5.64-2.68,6.1c-2.08,0.47-10.66-2.18-10.66-2.18
				L169.31,161.43z"/>
			<path class="st1" d="M190.81,221.09c0,0-1.79-2.14-3.09-3.26c-1.3-1.12-3.45-2.4-3.45-2.4l-1.86,1.74l6.03,6.38L190.81,221.09z"
				/>
			<path class="st1" d="M196.74,226.7c-0.23-0.71-4.9-3.9-7.86-4.96l-1.03,1.03c0,0,2.53,2.11,3.05,3.4
				c0.53,1.29,3.47,3.52,3.47,3.52L196.74,226.7z"/>
			<path class="st1" d="M201.3,231.46c-1.03-2.2-3.42-3.8-5.32-4.38c-1.9-0.58-2.68-1.28-2.68-1.28l-1.19,1.66
				c0,0,4.95,3.72,5.51,6.1c1.39,0.52,2.26,0.69,2.72,1.29L201.3,231.46z"/>
			<path class="st1" d="M210.06,244.72c0.71-1.79,0.11-4.03-1.7-6s-9.07-7.25-9.07-7.25l-0.93,0.97c0,0,6.74,6.19,7.46,8.39
				c0.49,1.49,0.45,3.95,1.55,4.97C207.96,246.34,209.75,245.51,210.06,244.72z"/>
			<path class="st1" d="M210.33,245.17c0.85,0.68,1.93,2.5,1.34,4.22c-0.59,1.72-3.08,3.16-5.8,3.61c1.4-0.7,3.65-2.21,3.87-3.84
				c0.14-1.08-1.1-2.4-1.27-2.91C208.28,245.74,209.74,244.7,210.33,245.17z"/>
			<path class="st1" d="M210.18,244.27c0.73,0.47,1.61,1.8,1.01,3.12c-0.6,1.32-2.88,2.52-5.32,2.97c1.27-0.59,3.34-1.82,3.61-3.06
				c0.17-0.82-0.87-1.76-1.01-2.14S209.68,243.94,210.18,244.27z"/>
			<path class="st1" d="M208.08,245.21c-0.42,1.31-1.92,3.88-2.08,4.97C207.36,249.08,208.21,246.67,208.08,245.21z"/>
			<path class="st1" d="M182.54,209.89c0.09,1.21,3.03,6.74,3.69,7.35c-1.5,0.21-3.2,0.51-3.5,0.93c-0.38-2.01-1.22-4.7-1.73-5.64
				s-0.77-1.44-1.26-2.03L182.54,209.89z"/>
		</g>
		<g>
			<path class="st1" d="M163.23,114.69c3.28-0.55,13.08,0.36,14.66,2.11c1.11,1.22-0.01,5.85-0.87,6.17
				c-0.86,0.31-13.51,1.48-14.98,1.2C160.57,123.88,160.33,115.18,163.23,114.69z"/>
			<path class="st1" d="M205.13,171.54c0,0-0.17-1.36-0.83-2.02c-0.66-0.66-3.24-3.08-3.24-3.08l-1.95,0.68c0,0,2.01,2.31,2.35,2.92
				c0.35,0.61,1.09,2.02,1.09,2.02L205.13,171.54z"/>
			<path class="st1" d="M208.75,176.21c-0.06-0.58-1.98-3.59-4.07-5l-0.94,0.55c0,0,1.59,2.1,1.79,3.18s1.63,1.84,1.63,1.84
				L208.75,176.21z"/>
			<path class="st1" d="M212.27,182.49c-0.1-1.73-1.62-3.62-2.73-4.71c-1.12-1.09-1.45-1.81-1.45-1.81l-1.24,0.54
				c0,0,2.18,2.88,1.92,4.54c0.79,0.85,1.22,1.27,1.37,1.81L212.27,182.49z"/>
			<path class="st1" d="M213.55,199.97c1.71-1.38,2.48-3.85,2.01-6.65c-0.48-2.81-3.96-11.52-3.96-11.52l-1.42,0.48
				c0,0,3.71,9.5,2.66,11.92c-1.05,2.42-2.28,3.14-2.32,3.89C210.47,198.99,212.8,200.58,213.55,199.97z"/>
			<path class="st1" d="M212.18,200.5c-0.25,1.09-1.47,2.91-3.33,3.12s-4.31-1.46-5.93-3.79c1.27,0.99,3.67,2.41,5.29,1.88
				c1.07-0.35,1.74-2.09,2.14-2.48C210.74,198.85,212.35,199.74,212.18,200.5z"/>
			<path class="st1" d="M212.95,199.96c-0.12,0.89-0.96,2.3-2.46,2.32s-3.62-1.55-5.12-3.62c1.11,0.92,3.18,2.3,4.45,1.99
				c0.84-0.2,1.25-1.59,1.54-1.89S213.03,199.35,212.95,199.96z"/>
			<path class="st1" d="M211.45,198.27c-1.4,0.19-4.46-0.06-5.55,0.27C207.54,199.33,210.15,199.05,211.45,198.27z"/>
			<path class="st1" d="M197.03,159.29c0.18,1.05,4.29,6.75,4.95,7.25c-1.37,0.28-2.92,0.65-3.17,1.04
				c-0.51-1.74-1.51-4.04-2.05-4.83s-1.78-2.26-2.28-2.74L197.03,159.29z"/>
			<path class="st1" d="M179.62,119.46c1.71,0.42,12.58,19.63,14.98,28.02c2.4,8.39,6.91,14.8,8.49,15.99
				c-2.88,0.05-6.14-1.08-7.26,3.75c-0.79-5.89-2.93-8.64-4.47-12.29c-1.54-3.66-14.38-30.8-14.08-32.87
				C177.59,119.99,177.89,119.03,179.62,119.46z"/>
		</g>
		<path class="st1" d="M137.15,67.19c1.19-1.06,3.66-1.98,6.27-1.63c0,0,1.02,1.12,0.65,1.8s-4.99,0.03-5.91,1L137.15,67.19z"/>
		<path class="st1" d="M147.36,65.33c1.27-0.01,2.92-0.37,1.37-1.38c-0.62-0.4-1.94-1.16-2.9-2.41c-1.44-1.9-2.43-4.49-1.92-5.19
			c0.84-1.17,5.08,2.6,7.01,5.46c0.62,0.92,2.53,5.29-3.56,4.55L147.36,65.33z"/>
		<path class="st1" d="M146.12,65.09c0.38-0.3,1.49,0.09,1.49,0.71c0,0.63-0.86,1-1.4,0.83C145.67,66.46,145.74,65.39,146.12,65.09z
			"/>
		<path class="st1" d="M144.79,65.24c0.33-0.31,1.28,0.05,1.26,0.69s-0.77,1.03-1.23,0.87C144.36,66.64,144.46,65.55,144.79,65.24z"
			/>
		<path class="st1" d="M143.42,65.56c0.27-0.36,1.27-0.16,1.37,0.47c0.09,0.63-0.57,1.14-1.06,1.06
			C143.25,67.01,143.15,65.93,143.42,65.56z"/>
		<path class="st3" d="M128,224.85c5.64,2.48,17.75-0.41,23.33-5.35c9.68-8.59,15.07-28.8,19.06-46.3
			c5.32-23.34,8.38-35.8,1.69-47.51c0,0-5.54-2.85-10.04-1.53c-9.9,2.92-20.06,7.77-21.11,8.67c-3.22,2.77-12.93,22.52-12.93,22.52
			V224.85z"/>
		<path class="st4" d="M128.13,224.76c1.07,0.38,2.39,0.67,3.65,0.78c1.28,0.06,2.57,0.07,3.85-0.08c2.56-0.26,5.09-0.82,7.52-1.68
			c2.43-0.85,4.78-1.96,6.87-3.46c2.06-1.53,3.77-3.5,5.27-5.59c3.01-4.19,5.17-8.94,7.03-13.75c1.85-4.83,3.36-9.78,4.71-14.78
			c1.35-5,2.52-10.04,3.67-15.09c1.14-5.05,2.31-10.09,3.29-15.17c0.96-5.08,1.79-10.21,1.74-15.37c-0.05-2.57-0.25-5.16-0.92-7.65
			c-0.64-2.49-1.61-4.89-2.87-7.14l0,0l0.07,0.06c-2.21-1.01-4.63-1.69-7.05-1.74c-1.22-0.02-2.37,0.19-3.54,0.6
			c-1.17,0.37-2.34,0.77-3.49,1.19c-4.63,1.67-9.17,3.59-13.57,5.77c-0.55,0.27-1.09,0.56-1.62,0.84c-0.5,0.29-1.12,0.6-1.43,0.9
			c-0.76,0.74-1.43,1.84-2.09,2.83c-1.29,2.06-2.48,4.22-3.64,6.39c-2.31,4.34-4.51,8.76-6.63,13.2l-0.01,0.01l0.11-0.46
			c-0.04,11.48-0.22,22.99-0.34,34.54L128.13,224.76z M127.87,224.94l-0.57-34.62c-0.12-11.62-0.3-23.28-0.34-34.96l0-0.25
			l0.11-0.22l0.01-0.01c2.27-4.41,4.6-8.77,7.07-13.07c1.24-2.15,2.49-4.29,3.89-6.37c0.74-1.03,1.37-2.07,2.41-3.03
			c0.62-0.52,1.15-0.71,1.72-1.03c0.56-0.28,1.12-0.55,1.69-0.81c4.52-2.07,9.14-3.86,13.85-5.41c1.18-0.38,2.36-0.75,3.55-1.09
			c1.17-0.38,2.49-0.59,3.74-0.52c2.53,0.13,4.94,0.9,7.18,1.99l0.05,0.02l0.02,0.04l0,0c1.27,2.27,2.26,4.7,2.9,7.22
			c0.67,2.52,0.87,5.14,0.93,7.73c0.05,5.21-0.78,10.35-1.74,15.44c-0.98,5.09-2.14,10.14-3.29,15.18
			c-1.15,5.05-2.32,10.09-3.67,15.1c-1.34,5-2.86,9.97-4.72,14.81c-1.87,4.83-4.03,9.6-7.07,13.83c-1.51,2.11-3.24,4.1-5.34,5.67
			c-2.13,1.52-4.51,2.64-6.96,3.5c-2.45,0.86-5.01,1.43-7.6,1.7C133.06,226.01,130.47,226.06,127.87,224.94z"/>
		<path class="st3" d="M128,45.18c3.48,0,7.5-5.81,7.89-8.32c0.39-2.52,7.45-2.42,6.68,1.94s-7.93,7.74-9.19,12.48
			s1.16,8.52,2.52,7.55c1.35-0.97,2.13-2.03,3.19-1.35c1.06,0.68,7.64,11.03,1.64,18.87H128V45.18z"/>
		<path class="st4" d="M130.7,44.18c1.92-1.27,4.56-4.51,5.24-7.36c0.59-2.48,7.45-2.42,6.68,1.94s-7.93,7.74-9.19,12.48
			c0,0-1.97-1.46-2.45-3.22C130.35,45.68,130.7,44.18,130.7,44.18z"/>
		<path class="st5" d="M141.85,77.44c4.62,2.73,24.71,11.53,24.71,19.77s-3,26.51-4.94,27.86c-1.95,1.35-13.03,3.59-17.07,6.74
			c-4.04,3.15-5.99,6.59-8.54,6.74s-8.01,0-8.01,0V74.29C128,74.29,138.55,75.49,141.85,77.44z"/>
		<path class="st4" d="M128.02,74.09c2.35,0.26,4.68,0.59,7,1.01c2.31,0.47,4.65,0.87,6.86,1.96c4.12,2.21,8.38,4.27,12.43,6.71
			c2.03,1.21,4.01,2.5,5.91,3.94c1.87,1.45,3.7,3.02,5.13,5.01c0.7,0.99,1.3,2.1,1.56,3.35c0.24,1.3,0.09,2.44,0.07,3.63
			c-0.12,2.37-0.34,4.72-0.62,7.06c-0.55,4.69-1.31,9.35-2.49,13.94c-0.31,1.15-0.63,2.29-1.11,3.42c-0.13,0.28-0.26,0.56-0.46,0.85
			c-0.09,0.14-0.22,0.29-0.39,0.43c-0.15,0.1-0.29,0.17-0.44,0.25c-0.57,0.28-1.13,0.48-1.7,0.68c-2.25,0.75-4.51,1.38-6.75,2.09
			c-2.23,0.71-4.45,1.48-6.53,2.51c-2.05,1.04-3.75,2.71-5.43,4.34c-0.84,0.82-1.67,1.67-2.62,2.4c-0.48,0.36-1,0.68-1.59,0.87
			c-0.59,0.21-1.21,0.18-1.79,0.21c-2.36,0.06-4.71,0.01-7.06,0l0.01-0.41c2.35,0.11,4.7,0.13,7.04,0.08c0.59-0.02,1.18,0,1.7-0.19
			c0.53-0.18,1.02-0.49,1.47-0.84c0.9-0.72,1.7-1.58,2.53-2.42c1.66-1.66,3.32-3.4,5.46-4.55c2.11-1.11,4.34-1.93,6.57-2.69
			c2.23-0.76,4.5-1.42,6.7-2.19c0.54-0.2,1.09-0.4,1.57-0.65l0.33-0.19c0.05-0.05,0.12-0.11,0.18-0.23c0.13-0.2,0.25-0.45,0.36-0.71
			c0.43-1.04,0.73-2.17,1.02-3.3c1.08-4.54,1.79-9.19,2.4-13.83c0.29-2.32,0.53-4.66,0.66-6.99c0.04-1.15,0.16-2.38-0.03-3.4
			c-0.21-1.06-0.73-2.08-1.38-3c-1.31-1.86-3.08-3.41-4.91-4.84c-1.85-1.42-3.8-2.71-5.8-3.92c-4-2.46-8.22-4.49-12.35-6.8
			c-2-1.04-4.36-1.53-6.62-2.03c-2.3-0.47-4.62-0.85-6.94-1.15L128.02,74.09z"/>
		<ellipse class="st2" cx="140.67" cy="73.87" rx="3.53" ry="3.39"/>
		<path class="st1" d="M139.33,73.87c0,1.87,0.18,3.39,1.85,3.39c1.67,0,3.02-1.52,3.02-3.39c0-1.87-1.35-3.39-3.02-3.39
			C139.52,70.48,139.33,71.99,139.33,73.87z"/>
		<path class="st1" d="M128,75.62c0,0,3.39,12.1,4.25,28.27c0.86,16.17-1.74,33.16-1.31,34.02c0.43,0.86,13.08-22.81,12.09-32.44
			C142.05,95.82,131.1,77.87,128,75.62z"/>
		<path class="st1" d="M136.74,79.85c2.72,3.92,10.09,17.64,10.61,24.39c0.61,7.94-2.94,24.28-2.68,26.04
			c3.77-2.35,11.78-16.27,11.03-27.73C154.94,91.09,134.82,77.07,136.74,79.85z"/>
		<path class="st1" d="M145.2,82.39c2.47,2.02,8.92,8.03,11.73,11.15C158.18,86.78,150.87,84.93,145.2,82.39z"/>
		<path class="st6" d="M130.34,165.21c0.33,25.84-2.44,58.72-0.44,59.05c7.6,1.27,17.46-3.19,19.2-4.44
			c6.6-4.73,15.09-21.61,19.03-40.41c2.43-11.62,6.64-27.5,6.61-37.03c-0.02-6.13-1.15-12.49-3.5-14.72
			c-2.11-2-13.75,2.22-16.31,3.26c-7,2.86-17.69,12.75-21.36,18.75C129.43,156.41,130.27,159.5,130.34,165.21z"/>
	</g>
</g>
</svg>
