<?xml version="1.0" encoding="utf-8"?>
<!-- Generator: Adobe Illustrator 23.0.1, SVG Export Plug-In . SVG Version: 6.00 Build 0)  -->
<svg version="1.1" id="Layer_1" xmlns="http://www.w3.org/2000/svg" xmlns:xlink="http://www.w3.org/1999/xlink" x="0px" y="0px"
	 viewBox="0 0 283.46 283.46" style="enable-background:new 0 0 283.46 283.46;" xml:space="preserve">
<style type="text/css">
	.st0{fill:#00FFAA;}
</style>
<path class="st0" d="M237.9,142.15c0,17.92-0.01,35.83,0.02,53.75c0,0.86-0.24,1.33-1.01,1.77c-31.15,17.96-62.28,35.94-93.41,53.93
	c-0.65,0.38-1.12,0.43-1.82,0.03c-31.12-18-62.26-35.98-93.41-53.93c-0.8-0.46-1.08-0.95-1.08-1.87c0.03-35.87,0.02-71.75,0-107.62
	c0-0.87,0.27-1.35,1.02-1.78c31.04-17.9,62.08-35.81,93.1-53.75c0.89-0.51,1.52-0.58,2.47-0.03c30.98,17.93,61.98,35.82,92.99,53.69
	c0.89,0.51,1.16,1.06,1.15,2.06C237.89,106.31,237.9,124.23,237.9,142.15z M52.14,142.06c0,16.8,0.02,33.59-0.03,50.39
	c0,1.33,0.4,2.02,1.55,2.68c29.32,16.88,58.62,33.81,87.91,50.75c0.76,0.44,1.3,0.41,2.05-0.03c29.32-16.96,58.66-33.9,88.02-50.8
	c1.07-0.62,1.36-1.28,1.36-2.44c-0.03-33.67-0.03-67.35,0.01-101.02c0-1.28-0.36-1.97-1.49-2.62
	c-29.25-16.84-58.49-33.72-87.71-50.62c-0.91-0.53-1.55-0.55-2.48-0.02C112.05,55.28,82.75,72.2,53.43,89.09
	c-1.02,0.59-1.31,1.21-1.31,2.34C52.16,108.31,52.14,125.19,52.14,142.06z"/>
<path class="st0" d="M153.7,110.8c13.49,0,26.76,0,40.14,0c0,1.56,0,3.09,0,4.75c-0.51,0.03-1.01,0.07-1.51,0.07
	c-10.76,0-21.51,0.02-32.27-0.02c-1.12,0-1.41,0.3-1.6,1.41c-1.07,6.3-2.26,12.57-3.42,18.85c-1.23,6.63-2.47,13.26-3.7,19.9
	c-0.07,0.39-0.07,0.8-0.07,1.19c0,17.55,0,35.11,0,52.66c0,0.39,0.03,0.78,0.06,1.31c1.73,0,3.4,0.04,5.07-0.02
	c0.85-0.03,1.12,0.27,1.08,1.1c-0.06,1.23-0.01,2.46-0.01,3.77c-2.89,0-5.66,0-8.54,0c-0.05-0.75-0.1-1.48-0.15-2.21
	c-0.17-0.06-0.28-0.13-0.39-0.14c-2.04-0.19-2.04-0.19-2.04-2.29c0-16.19,0.08-32.39-0.05-48.58c-0.04-5.04,0.59-9.94,1.53-14.85
	c1.99-10.43,3.91-20.88,5.79-31.33c0.22-1.24,0.07-2.55,0.08-3.83C153.7,111.99,153.7,111.44,153.7,110.8z"/>
<path class="st0" d="M91.3,115.68c0-1.76,0-3.27,0-4.84c13.36,0,26.66,0,40,0c0.04,0.17,0.12,0.32,0.11,0.47
	c-0.34,5.18,1.08,10.14,1.98,15.16c1.72,9.63,3.56,19.24,5.33,28.86c0.09,0.47,0.06,0.96,0.06,1.43c0,17.52,0,35.03,0,52.55
	c0,0.47,0,0.95,0,1.51c0.64,0.06,1.22,0.12,1.85,0.18c0,1.59,0,3.13,0,4.76c-2.21,0-4.42,0-6.78,0c0-0.53,0-1.03,0-1.54
	c0-17.24-0.06-34.47,0.04-51.71c0.03-4.67-0.49-9.23-1.36-13.79c-2.02-10.51-3.93-21.04-5.87-31.56c-0.08-0.43-0.1-0.87-0.16-1.48
	C114.81,115.68,103.12,115.68,91.3,115.68z"/>
<path class="st0" d="M184.63,199.26c1.84-1.05,3.53-2.02,5.35-3.06c0.8,1.38,1.59,2.75,2.46,4.24c-3.22,1.86-6.39,3.69-9.61,5.56
	c-9.38-16.25-18.72-32.43-28.12-48.71c1.43-0.83,2.77-1.6,4.26-2.46C167.51,169.62,176.03,184.38,184.63,199.26z"/>
<path class="st0" d="M126.17,154.83c1.5,0.87,2.83,1.64,4.26,2.47c-8.55,14.8-17.05,29.53-25.62,44.38
	c0.51,0.35,0.98,0.67,1.54,1.05c-0.81,1.41-1.6,2.78-2.43,4.21c-2-1.15-3.9-2.25-5.87-3.39
	C107.43,187.3,116.77,171.12,126.17,154.83z"/>
<path class="st0" d="M152.16,95.88c0,2.21-0.69,4.19-1.68,6.08c-0.41,0.78-0.87,1.52-1.36,2.25c-1.95,2.92-5.12,4.1-8.55,3.29
	c-2.25-0.53-3.87-1.64-5.06-3.73c-2.19-3.86-3.16-7.78-1.73-12.12c1.45-4.41,4.51-6.59,9.28-6.53c3.92,0.04,7.23,2.67,8.39,6.79
	C151.8,93.19,151.92,94.55,152.16,95.88z M147.06,95.5c-0.13-0.59-0.25-1.67-0.6-2.67c-0.68-1.93-2.11-2.81-4.15-2.75
	c-1.83,0.06-3.09,1.1-3.75,2.97c-1.19,3.33-0.05,6.18,1.81,8.86c0.66,0.95,3.37,1.12,4.05,0.21
	C145.78,100.31,147.05,98.41,147.06,95.5z"/>
<path class="st0" d="M95.75,90.59c0.84-1.46,1.61-2.79,2.46-4.26c9.69,5.59,19.32,11.15,29.07,16.78c-0.81,1.42-1.6,2.78-2.45,4.27
	C115.16,101.79,105.53,96.24,95.75,90.59z"/>
<path class="st0" d="M186.94,86.32c0.83,1.44,1.61,2.78,2.46,4.26c-9.7,5.6-19.36,11.18-29.07,16.79c-0.83-1.43-1.61-2.77-2.46-4.26
	C167.57,97.51,177.22,91.93,186.94,86.32z"/>
<path class="st0" d="M195.01,87.34c-1.27,0.73-2.47,1.42-3.74,2.15c-0.82-1.43-1.59-2.76-2.45-4.25c1.26-0.73,2.45-1.41,3.74-2.16
	C193.39,84.53,194.18,85.9,195.01,87.34z"/>
<path class="st0" d="M92.58,83.08c1.3,0.75,2.47,1.43,3.74,2.16c-0.82,1.42-1.61,2.78-2.45,4.25c-1.26-0.72-2.42-1.39-3.73-2.14
	C90.95,85.94,91.73,84.57,92.58,83.08z"/>
<path class="st0" d="M84.76,110.8c1.52,0,2.82,0,4.29,0c0,1.42,0.03,2.8-0.03,4.17c-0.01,0.22-0.41,0.42-0.63,0.63
	c-0.02,0.02-0.08,0-0.12,0.01c-3.52,0.32-3.52,0.32-3.51-3.17C84.76,111.94,84.76,111.43,84.76,110.8z"/>
<path class="st0" d="M196.13,110.81c1.49,0,2.79,0,4.19,0c0,1.55,0,3.07,0,4.79c-1.22,0-2.43,0.03-3.64-0.03
	c-0.19-0.01-0.51-0.38-0.52-0.59C196.1,113.63,196.13,112.28,196.13,110.81z"/>
</svg>
