<svg width="52" height="52" xmlns="http://www.w3.org/2000/svg">

 <g>
  <title>background</title>
  <rect fill="none" id="canvas_background" height="402" width="582" y="-1" x="-1"/>
 </g>
 <g>
  <title>Layer 1</title>
  <path fill="#00ffaa" id="svg_4" d="m37.31348,42l-27.31348,0l0,-27.46191l4.39844,-4.53809l27.60156,0l0,26.36426l-4.68652,5.63574zm-25.31348,-2l24.37598,0l3.62402,-4.3584l0,-23.6416l-24.75391,0l-3.24609,3.34863l0,24.65137z"/>
  <path fill="#00ffaa" id="svg_7" d="m33,36.5l-14,0c-1.6543,0 -3,-1.3457 -3,-3l0,-14c0,-1.6543 1.3457,-3 3,-3l14,0c1.6543,0 3,1.3457 3,3l0,14c0,1.6543 -1.3457,3 -3,3zm-14,-18c-0.55176,0 -1,0.44873 -1,1l0,14c0,0.55127 0.44824,1 1,1l14,0c0.55176,0 1,-0.44873 1,-1l0,-14c0,-0.55127 -0.44824,-1 -1,-1l-14,0z"/>
  <rect fill="#00ffaa" id="svg_12" y="17.5" x="42" width="7" height="2"/>
  <rect fill="#00ffaa" id="svg_15" y="22.5" x="42" width="7" height="2"/>
  <rect fill="#00ffaa" id="svg_18" y="27.5" x="42" width="7" height="2"/>
  <rect fill="#00ffaa" id="svg_21" y="32.5" x="42" width="7" height="2"/>
  <rect fill="#00ffaa" id="svg_25" y="17.5" x="3" width="7" height="2"/>
  <rect fill="#00ffaa" id="svg_28" y="22.5" x="3" width="7" height="2"/>
  <rect fill="#00ffaa" id="svg_31" y="27.5" x="3" width="7" height="2"/>
  <rect fill="#00ffaa" id="svg_34" y="32.5" x="3" width="7" height="2"/>
  <rect fill="#00ffaa" id="svg_39" y="3" x="32.5" width="2" height="7"/>
  <rect fill="#00ffaa" id="svg_42" y="3" x="27.5" width="2" height="7"/>
  <rect fill="#00ffaa" id="svg_45" y="3" x="22.5" width="2" height="7"/>
  <rect fill="#00ffaa" id="svg_48" y="3" x="17.5" width="2" height="7"/>
  <rect fill="#00ffaa" id="svg_52" y="42" x="32.5" width="2" height="7"/>
  <rect fill="#00ffaa" id="svg_55" y="42" x="27.5" width="2" height="7"/>
  <rect fill="#00ffaa" id="svg_58" y="42" x="22.5" width="2" height="7"/>
  <rect fill="#00ffaa" id="svg_61" y="42" x="17.5" width="2" height="7"/>
 </g>
</svg>