<svg width="512" height="512" xmlns="http://www.w3.org/2000/svg">
 <title/>

 <g>
  <title>background</title>
  <rect fill="none" id="canvas_background" height="402" width="582" y="-1" x="-1"/>
 </g>
 <g>
  <title>Layer 1</title>
  <path fill="#00ffaa" id="svg_1" d="m263,272.72a7,7 0 0 0 -7,7l0,54.87l-150.35,0a7,7 0 0 0 -7,7l0,36.25l-9.2,0a5.5,5.5 0 0 0 -3.79,9.48l16.19,15.46a5.5,5.5 0 0 0 7.59,0l16.19,-15.46a5.5,5.5 0 0 0 -3.79,-9.48l-9.19,0l0,-29.25l143.35,0l0,29.25l-9.19,0a5.5,5.5 0 0 0 -3.8,9.48l16.2,15.46a5.5,5.5 0 0 0 7.59,0l16.2,-15.46a5.5,5.5 0 0 0 -3.79,-9.48l-9.21,0l0,-29.25l139.38,0l0,29.25l-9.19,0a5.5,5.5 0 0 0 -3.8,9.48l16.19,15.46a5.51,5.51 0 0 0 7.6,0l16.19,-15.46a5.5,5.5 0 0 0 -3.8,-9.48l-9.19,0l0,-36.25a7,7 0 0 0 -7,-7l-146.38,0l0,-54.87a7,7 0 0 0 -7,-7z"/>
  <path fill="#00ffaa" id="svg_2" d="m105.65,426.87a36.79,36.79 0 1 0 36.79,36.79a36.83,36.83 0 0 0 -36.79,-36.79zm0,59.58a22.79,22.79 0 1 1 22.79,-22.79a22.81,22.81 0 0 1 -22.79,22.79z"/>
  <path fill="#00ffaa" id="svg_3" d="m290.6,431.29l-57.17,0a7,7 0 0 0 -7,7l0,55.16a7,7 0 0 0 7,7l57.17,0a7,7 0 0 0 7,-7l0,-55.16a7,7 0 0 0 -7,-7zm-7,55.16l-43.17,0l0,-41.16l43.17,0l0,41.16z"/>
  <path fill="#00ffaa" id="svg_4" d="m422.38,430.68a7,7 0 0 0 -12,0l-35.58,59.16a7,7 0 0 0 6,10.61l71.2,0a7,7 0 0 0 6,-10.61l-35.62,-59.16zm6.42,114.93l23.2,-38.58l23.21,38.58l-46.41,0z"/>
  <path fill="#00ffaa" id="svg_5" d="m470.27,97.9l-17.27,-12.49a7,7 0 0 0 -9.77,1.59l-13,18l-49.69,-36a10.13,10.13 0 0 0 -14.14,2.26l-10.4,14.31l-0.35,-0.25a10.14,10.14 0 0 0 -14.78,3.27l-9.3,16.66a10.13,10.13 0 0 0 2.9,13.14l1.37,1l-13,21l0.16,-118.67a13.55,13.55 0 0 0 -13.52,-13.56l-22.4,0l0,0a13.54,13.54 0 0 0 -13.53,13.54l0,39.2l-32.43,0l0,-39.2a13.55,13.55 0 0 0 -13.52,-13.61l-22.41,0l0,0a13.54,13.54 0 0 0 -13.52,13.54l-0.12,125.78l-4.69,-4.68a42.59,42.59 0 0 0 -23.91,-12.07l-40,-6l-8.59,-8.66l3.39,-3.39a7,7 0 0 0 0,-9.9l-12.4,-12.4a14,14 0 0 0 -9.93,-4.11l0,0a13.92,13.92 0 0 0 -9.93,4.12l-27.39,27.4a14.06,14.06 0 0 0 0,19.87l12.39,12.41a7,7 0 0 0 5,2.05l0,0a7,7 0 0 0 5,-2.05l2.88,-2.89l9.42,9.41l5.41,38.74a43.21,43.21 0 0 0 12.16,24.38l64.64,64.74a25.62,25.62 0 0 0 18.23,7.55l0,0a25.65,25.65 0 0 0 18.24,-7.57l40.28,-40.3a25.67,25.67 0 0 0 7.55,-18.25a1.93,1.93 0 0 0 0,-0.24l11.09,0a13.34,13.34 0 0 0 4.31,16.26l47.17,34.17a13.36,13.36 0 0 0 18,-2.23l79.25,-94.09l2.88,2.08a10.11,10.11 0 0 0 13.39,-1.34l12.93,-14a10.13,10.13 0 0 0 -1.52,-15.06l-2.12,-1.54l10.37,-14.33a10.12,10.12 0 0 0 -2.26,-14.14l-11.23,-8.13l8.91,-12.31l11.59,8.39a7,7 0 0 0 8.21,-11.34l0,-0.06zm-229.21,-23.05l32.44,0l0,8.85a5.22,5.22 0 0 1 -1.5,3.75a5.15,5.15 0 0 1 -3.71,1.55l0,0l-22,0a5.24,5.24 0 0 1 -5.2,-5.27l-0.03,-8.88zm-162.74,57.44l0,0l-2.84,2.85l-7.48,-7.48l27.46,-27.41l7.46,7.45l-8.48,8.48l-16.12,16.11zm18.56,8.71l-3.71,-3.71l11.3,-11.3l3.71,3.71l3.15,3.15l-11.33,11.25l-3.12,-3.1zm148.12,96.31l-43.4,37.16a11.76,11.76 0 0 1 -8.34,3.46l0,0a11.69,11.69 0 0 1 -8.33,-3.46l-64.76,-64.7a29,29 0 0 1 -8.17,-16.42l-5.08,-36.3l18,-18l36,5.44a28.62,28.62 0 0 1 16.1,8.12l64.93,64.87a11.81,11.81 0 0 1 0,16.68l3.05,3.15zm9.89,-26.59l-46.24,-46.2l0.13,-139.3l21.45,0l-0.05,61.59a19.26,19.26 0 0 0 16.07,16.19l22,0l0,0a19.22,19.22 0 0 0 19.2,-19.24l0.05,-61.6l21.45,0l-0.13,182.84a6.56,6.56 0 0 1 -1.93,4.66a6.46,6.46 0 0 1 -4.6,1.91l0,0l-47.24,0a26.42,26.42 0 0 0 -3.28,-4l3.12,3.15zm77.79,56.69l-46.12,-33.38l3.26,-5.28l15.59,0a20.55,20.55 0 0 0 20.53,-20.56l0,-38l24.38,-39.46l60.52,43.81l-78.16,92.87zm97.86,-95.88l-81.93,-59.31l5.5,-9.85l84.07,60.86l-7.64,8.3zm5.92,-26.83l-15.09,-10.93l-54.01,-39.99l8.1,-11.19l66,47.77l-5,14.34z"/>
 </g>
</svg>