<svg width="34" height="34" xmlns="http://www.w3.org/2000/svg">

 <g>
  <title>background</title>
  <rect fill="none" id="canvas_background" height="402" width="582" y="-1" x="-1"/>
 </g>
 <g>
  <title>Layer 1</title>
  <path id="svg_2" fill="#00ffaa" d="m17.123,9.2c-1.44,0 -2.642,0.503 -3.604,1.32s-1.525,1.48 -1.687,3.48l2.937,0c0.064,-1 0.303,-1.231 0.716,-1.611s0.926,-0.618 1.541,-0.618c0.615,0 1.116,0.174 1.504,0.571c0.389,0.396 0.583,0.882 0.583,1.48s-0.187,1.094 -0.558,1.499l-1.772,1.769c-0.518,0.518 -0.626,0.934 -0.78,1.249c-0.154,0.315 -0.003,0.794 -0.003,1.441l0,1.22l2,0l0,-0.832c0,-0.646 0.289,-1.148 0.581,-1.504c0.112,-0.129 0.333,-0.287 0.521,-0.473c0.186,-0.187 0.448,-0.405 0.715,-0.656c0.267,-0.25 0.5,-0.457 0.662,-0.619c0.161,-0.161 0.404,-0.437 0.712,-0.825c0.533,-0.647 0.805,-1.456 0.805,-2.427c0,-1.408 -0.45,-2.503 -1.356,-3.289c-0.908,-0.783 -2.077,-1.175 -3.517,-1.175z"/>
  <path id="svg_3" fill="#00ffaa" d="m16.94,22.145c-0.51,0 -0.946,0.179 -1.311,0.534c-0.364,0.356 -0.546,0.78 -0.546,1.274c0,0.493 0.186,0.914 0.558,1.262c0.372,0.348 0.813,0.521 1.322,0.521c0.51,0 0.947,-0.178 1.311,-0.533c0.363,-0.356 0.546,-0.781 0.546,-1.274s-0.187,-0.914 -0.559,-1.263c-0.37,-0.348 -0.811,-0.521 -1.321,-0.521z"/>
  <path id="svg_4" fill="#00ffaa" d="m17,0c-9.389,0 -17,7.611 -17,17s7.611,17 17,17s17,-7.611 17,-17s-7.611,-17 -17,-17zm0,31c-7.732,0 -14,-6.268 -14,-14c0,-7.732 6.268,-14 14,-14c7.732,0 14,6.268 14,14c0,7.732 -6.268,14 -14,14z"/>
 </g>
</svg>