<?xml version="1.0" standalone="no"?>
<!DOCTYPE svg PUBLIC "-//W3C//DTD SVG 20010904//EN"
 "http://www.w3.org/TR/2001/REC-SVG-20010904/DTD/svg10.dtd">
<svg version="1.0" xmlns="http://www.w3.org/2000/svg"
 width="700.000000pt" height="700.000000pt" viewBox="0 0 700.000000 700.000000"
 preserveAspectRatio="xMidYMid meet">
<metadata>
Created by potrace 1.11, written by Peter Selinger 2001-2013
</metadata>
<g transform="translate(0.000000,700.000000) scale(0.100000,-0.100000)"
fill="#000000" stroke="none">
<path d="M3175 6013 c-511 -296 -1108 -641 -1555 -897 -228 -131 -424 -248
-435 -260 -20 -21 -20 -34 -20 -1368 0 -881 4 -1351 10 -1357 9 -9 172 -104
548 -320 54 -31 111 -64 128 -73 282 -167 1662 -958 1670 -958 9 0 131 69 543
308 72 41 144 82 160 92 54 31 1085 626 1511 872 66 38 125 75 130 82 7 9 10
466 10 1359 0 1332 0 1347 -20 1365 -11 10 -141 89 -290 174 -265 153 -1264
729 -1460 843 -55 32 -116 67 -135 77 -19 11 -124 72 -232 134 -108 63 -207
114 -220 113 -13 0 -167 -84 -343 -186z m530 -49 c83 -47 170 -98 195 -112 25
-14 97 -55 160 -92 63 -37 205 -119 315 -182 110 -63 346 -200 525 -303 179
-103 341 -197 360 -208 19 -10 64 -36 100 -57 36 -21 84 -49 106 -62 201 -113
267 -156 278 -178 9 -19 11 -327 11 -1280 -1 -690 -5 -1264 -8 -1275 -7 -18
-49 -47 -180 -119 -26 -15 -98 -57 -160 -93 -62 -36 -130 -75 -152 -87 -22
-13 -184 -106 -360 -208 -176 -101 -484 -279 -685 -395 -201 -116 -381 -220
-400 -231 -34 -20 -117 -68 -193 -111 -21 -12 -50 -29 -63 -38 -32 -21 -6 -34
-449 222 -198 114 -466 269 -595 343 -129 74 -264 152 -299 174 -34 21 -65 38
-67 38 -2 0 -41 22 -86 49 -106 62 -302 175 -543 313 -104 60 -198 117 -208
127 -17 16 -18 85 -19 1295 -1 1081 1 1279 13 1290 11 11 190 117 365 216 17
10 209 121 425 246 359 207 533 308 592 341 12 7 200 116 417 243 323 187 400
229 425 225 17 -2 98 -43 180 -91z"/>
<path d="M2256 4899 c-14 -27 -24 -54 -21 -58 3 -5 23 -18 44 -29 l40 -21 27
47 c15 26 28 50 30 53 2 3 -18 18 -45 32 l-47 26 -28 -50z"/>
<path d="M4708 4922 l-45 -27 29 -53 30 -52 48 27 48 27 -31 50 c-17 28 -31
52 -32 53 0 1 -21 -10 -47 -25z"/>
<path d="M3451 4888 c-111 -25 -184 -173 -157 -318 9 -48 52 -140 79 -169 74
-80 219 -79 290 2 38 44 86 144 91 191 6 50 -11 140 -34 187 -21 40 -70 86
-109 101 -39 15 -110 18 -160 6z m114 -121 c29 -10 55 -58 62 -115 10 -90 -55
-197 -115 -186 -37 7 -52 22 -78 79 -63 134 13 261 131 222z"/>
<path d="M2396 4818 c-15 -27 -24 -53 -20 -58 8 -7 244 -146 344 -202 25 -14
116 -67 203 -117 87 -51 160 -91 161 -89 2 2 15 24 30 50 25 44 28 68 6 68 -4
0 -37 17 -71 38 -46 28 -533 309 -619 358 -3 1 -18 -20 -34 -48z"/>
<path d="M4465 4782 c-511 -295 -565 -327 -561 -338 3 -7 16 -31 31 -53 l26
-41 48 27 c27 16 188 109 359 207 l310 179 -30 51 c-17 28 -31 52 -32 53 0 0
-69 -38 -151 -85z"/>
<path d="M2103 4263 c-16 -6 -17 -77 -2 -104 8 -15 19 -19 50 -17 45 2 53 17
47 84 -3 37 -4 38 -43 40 -22 0 -46 -1 -52 -3z"/>
<path d="M2257 4255 c-2 -5 -3 -32 -3 -60 l1 -50 428 -1 c239 -1 432 -5 436
-10 4 -5 16 -54 25 -109 9 -55 29 -170 45 -255 63 -336 100 -537 107 -590 4
-30 8 -381 8 -780 l1 -725 83 -3 c61 -2 82 0 83 10 6 98 4 108 -18 108 -20 0
-23 5 -23 38 -1 20 -1 325 -1 677 0 689 2 653 -54 935 -10 49 -86 461 -111
600 -9 46 -17 116 -18 154 l-3 70 -491 1 c-319 0 -493 -4 -495 -10z"/>
<path d="M3802 4260 c-4 -3 -8 -39 -9 -80 -1 -63 -59 -401 -138 -802 -16 -82
-21 -110 -34 -222 -10 -89 -8 -1397 2 -1413 5 -7 17 -13 28 -13 10 0 20 -4 20
-10 1 -5 3 -14 4 -20 1 -5 3 -14 4 -20 0 -6 44 -10 106 -10 l106 0 -3 58 -3
57 -72 3 c-60 2 -73 6 -74 20 -6 85 -3 1329 4 1367 4 28 35 194 67 370 33 176
62 336 65 355 17 101 45 234 50 239 4 3 196 6 428 7 232 1 425 2 428 3 13 2 9
111 -4 112 -40 4 -970 3 -975 -1z"/>
<path d="M4851 4260 c-8 -4 -9 -44 -2 -106 1 -9 45 -12 94 -5 5 1 7 27 5 58
l-3 57 -42 1 c-24 1 -47 -1 -52 -5z"/>
<path d="M3046 3058 c-611 -1057 -625 -1082 -607 -1095 10 -6 43 -26 74 -43
l55 -30 26 46 c31 55 31 60 9 72 -18 10 -50 -48 389 710 109 189 205 356 213
372 15 28 15 29 -31 54 -26 14 -50 26 -54 26 -5 0 -38 -51 -74 -112z"/>
<path d="M3865 3144 c-22 -13 -39 -28 -37 -34 3 -12 52 -99 322 -565 111 -192
236 -410 279 -484 42 -73 81 -135 87 -138 6 -2 61 26 123 62 l112 66 -27 50
c-15 27 -31 49 -35 49 -5 0 -34 -15 -66 -34 -32 -19 -62 -31 -66 -27 -7 7
-155 261 -237 406 -175 310 -390 670 -401 672 -8 1 -32 -10 -54 -23z"/>
</g>
</svg>
