<svg width="40" height="40" xmlns="http://www.w3.org/2000/svg">

 <g>
  <title>background</title>
  <rect fill="none" id="canvas_background" height="402" width="582" y="-1" x="-1"/>
 </g>
 <g>
  <title>Layer 1</title>
  <path fill="#00ffaa" stroke="#000000" stroke-opacity="0" id="svg_2" d="m28,40l-16.2,0c-3.3,0 -5.9,-2.7 -5.9,-5.9l0,-18.1c0,-0.6 0.4,-1 1,-1s1,0.4 1,1l0,18.1c0,2.2 1.8,3.9 3.9,3.9l16.2,0c2.2,0 3.9,-1.8 3.9,-3.9l0,-18.1c0,-0.6 0.4,-1 1,-1s1,0.4 1,1l0,18.1c0,3.2 -2.7,5.9 -5.9,5.9z"/>
  <path fill="#00ffaa" stroke="#000000" stroke-opacity="0" id="svg_4" d="m33.3,4.9l-7.6,0c-0.5,-2.8 -2.9,-4.9 -5.8,-4.9s-5.3,2.1 -5.8,4.9l-7.6,0c-2.3,0 -4.1,1.8 -4.1,4.1s1.8,4 4.1,4l26.9,0c2.3,0 4.1,-1.8 4.1,-4.1s-1.9,-4 -4.2,-4zm-13.4,-2.9c1.8,0 3.3,1.2 3.7,2.9l-7.5,0c0.5,-1.7 2,-2.9 3.8,-2.9zm13.4,9l-26.8,0c-1.1,0 -2.1,-0.9 -2.1,-2.1c0,-1.1 0.9,-2.1 2.1,-2.1l26.9,0c1.1,0 2.1,0.9 2.1,2.1c-0.1,1.2 -1,2.1 -2.2,2.1z"/>
  <path fill="#00ffaa" stroke="#000000" stroke-opacity="0" id="svg_6" d="m12.9,35.1c-0.6,0 -1,-0.4 -1,-1l0,-16.7c0,-0.6 0.4,-1 1,-1s1,0.4 1,1l0,16.7c0,0.5 -0.5,1 -1,1z"/>
  <path fill="#00ffaa" stroke="#000000" stroke-opacity="0" id="svg_8" d="m26.9,35.1c-0.6,0 -1,-0.4 -1,-1l0,-16.7c0,-0.6 0.4,-1 1,-1s1,0.4 1,1l0,16.7c0,0.5 -0.5,1 -1,1z"/>
  <path fill="#00ffaa" stroke="#000000" stroke-opacity="0" id="svg_10" d="m19.9,35.1c-0.6,0 -1,-0.4 -1,-1l0,-16.7c0,-0.6 0.4,-1 1,-1s1,0.4 1,1l0,16.7c0,0.5 -0.5,1 -1,1z"/>
 </g>
</svg>