<svg width="256" height="256" xmlns="http://www.w3.org/2000/svg">

 <g>
  <title>background</title>
  <rect fill="none" id="canvas_background" height="402" width="582" y="-1" x="-1"/>
 </g>
 <g>
  <title>Layer 1</title>
  <path fill="#00ffaa" id="svg_2" d="m144.1,95.7c2.6,0 4.9,-2.1 5,-4.7l2.1,-37.1c0.2,-2.8 -2,-5.1 -4.7,-5.3c-2.8,-0.2 -5.1,2 -5.3,4.7l-2.1,37.1c-0.2,2.8 2,5.1 4.7,5.3c0.1,0 0.2,0 0.3,0z"/>
  <path fill="#00ffaa" id="svg_3" d="m173.9,82.2c2.6,0 4.9,-2.1 5,-4.7l2.2,-38.9c0.2,-2.8 -2,-5.1 -4.7,-5.3c-2.7,-0.2 -5.1,2 -5.3,4.7l-2.2,38.9c-0.2,2.8 2,5.1 4.7,5.3c0.1,0 0.2,0 0.3,0z"/>
  <path fill="#00ffaa" id="svg_4" d="m246.7,164.4c-4.7,-5.8 -12.4,-7.7 -19.2,-4.8l-61.9,26c-2.6,1.1 -3.8,4 -2.7,6.6c1.1,2.6 4,3.8 6.6,2.7l61.9,-26c2.6,-1.1 5.7,-0.3 7.5,1.9c1.1,1.4 1.6,3.2 1.3,5c-0.3,1.8 -1.3,3.4 -2.9,4.4c-27,17.6 -88.5,52.4 -91.4,54.1c-0.1,0.1 -0.2,0.1 -0.3,0.2l0,0c-7.5,4.4 -15.8,5.6 -26.4,3.8c-0.6,-0.1 -11.2,-1.4 -49.3,-6.1l-16.9,-2.3l0,-67.7c2.8,-0.2 5.2,-0.3 6.3,-0.3l0.6,0c23.4,-1.5 45.7,3 69.3,7.8c3,0.6 6.1,1.2 9.1,1.8c3.2,0.6 5.6,3.5 5.6,6.8c0,0.2 0,0.4 -0.1,0.8c-0.2,1.9 -1.2,3.3 -2,4c-1.3,1.3 -3,2 -4.9,2l-47.1,0c-2.8,0 -5,2.2 -5,5c0,2.8 2.2,5 5,5l47.3,0c4.5,0 8.8,-1.8 12,-5c2.7,-2.8 4.4,-6.2 4.8,-9.7c0.1,-0.7 0.2,-1.5 0.2,-2.2c0,-8.1 -5.8,-15.1 -13.7,-16.6c-3,-0.6 -6,-1.2 -9,-1.8c-23.2,-4.7 -47.3,-9.6 -71.9,-8l-0.5,0c-1.1,0.1 -3.5,0.2 -6.1,0.3c-0.6,-2.1 -2.4,-3.7 -4.8,-3.7l-37.4,0c-2.8,0 -5,2.2 -5,5l0,84.4c0,2.8 2.2,5 5,5l37.3,0c2,0 3.7,-1.2 4.5,-2.9l16.2,2c20.1,2.5 47.6,5.8 48.8,6c3.7,0.7 7.3,1 10.7,1c8.3,0 15.7,-2 22.4,-5.9c0.1,0 0.1,-0.1 0.2,-0.1c0.6,-0.4 64.2,-36.3 92,-54.4c3.9,-2.5 6.6,-6.6 7.3,-11.2c0.7,-4.6 -0.5,-9.3 -3.4,-12.9zm-203.7,68.5l-27.3,0l0,-74.3l27.3,0l0,74.3z"/>
  <path fill="#00ffaa" id="svg_5" d="m122.8,100.6c2.3,-1.6 2.8,-4.8 1.2,-7c-9,-12.6 -8.3,-29.1 1.7,-41c20,-23.7 51.6,-32.2 76.3,-35.1c1,14.2 -1,30.1 -5.6,45.5c-1.7,5.6 -17.5,54.5 -51.3,44.4c-1.4,-0.5 -10.3,-4.5 -12.2,-5.6c-1.1,-0.8 -2.5,-1.2 -3.9,-1c-6.4,1.1 -12.9,24 -13.4,34.8c-0.1,2.8 2,5.1 4.8,5.2c0.1,0 0.2,0 0.2,0c2.7,0 4.9,-2.1 5,-4.8c0.4,-9.4 3.9,-18.7 6.1,-23.7c0.7,0.3 1.5,0.7 2.4,1.1c1.6,0.7 6.7,3.1 8,3.4c32.9,9.8 55,-21.4 63.9,-51.1c5.5,-18.4 7.5,-37.6 5.5,-54.6c-0.5,-2.6 -3.1,-4.6 -5.8,-4.4c-38.8,3.6 -69.1,17.2 -87.7,39.1c-13.1,15.5 -14,36.9 -2.2,53.3c1.6,2.6 4.7,3.2 7,1.5z"/>
 </g>
</svg>